<mxfile>
    <diagram id="R2lEEEUBdFMjLlhIrx00" name="Page-1">
        <mxGraphModel dx="1420" dy="1521" grid="1" gridSize="10" guides="1" tooltips="1" connect="1" arrows="1" fold="1" page="1" pageScale="1" pageWidth="850" pageHeight="1100" math="0" shadow="0" extFonts="Permanent Marker^https://fonts.googleapis.com/css?family=Permanent+Marker">
            <root>
                <mxCell id="0"/>
                <mxCell id="1" parent="0"/>
                <mxCell id="MU8n-7caOR68o1KwIRi--2" style="edgeStyle=orthogonalEdgeStyle;rounded=0;orthogonalLoop=1;jettySize=auto;html=1;entryX=0.75;entryY=0;entryDx=0;entryDy=0;endArrow=diamond;endFill=0;" parent="1" source="C-vyLk0tnHw3VtMMgP7b-2" target="C-vyLk0tnHw3VtMMgP7b-13" edge="1">
                    <mxGeometry relative="1" as="geometry">
                        <Array as="points">
                            <mxPoint x="580" y="365"/>
                            <mxPoint x="448" y="365"/>
                        </Array>
                    </mxGeometry>
                </mxCell>
                <mxCell id="H-VeI4tqfpoL3jdRFG1W-13" style="edgeStyle=orthogonalEdgeStyle;rounded=0;orthogonalLoop=1;jettySize=auto;html=1;entryX=0.14;entryY=0;entryDx=0;entryDy=0;entryPerimeter=0;endArrow=classic;endFill=1;" parent="1" source="C-vyLk0tnHw3VtMMgP7b-2" target="4EHw12qrjTxByGc45qhq-54" edge="1">
                    <mxGeometry relative="1" as="geometry"/>
                </mxCell>
                <mxCell id="H-VeI4tqfpoL3jdRFG1W-15" style="edgeStyle=orthogonalEdgeStyle;rounded=0;orthogonalLoop=1;jettySize=auto;html=1;exitX=0.75;exitY=0;exitDx=0;exitDy=0;endArrow=classic;endFill=1;entryX=0.4;entryY=0;entryDx=0;entryDy=0;entryPerimeter=0;" parent="1" source="C-vyLk0tnHw3VtMMgP7b-2" target="C-vyLk0tnHw3VtMMgP7b-2" edge="1">
                    <mxGeometry relative="1" as="geometry">
                        <mxPoint x="580" y="190" as="targetPoint"/>
                        <Array as="points">
                            <mxPoint x="668" y="90"/>
                            <mxPoint x="580" y="90"/>
                        </Array>
                    </mxGeometry>
                </mxCell>
                <mxCell id="C-vyLk0tnHw3VtMMgP7b-2" value="O365UserDomainsGroups" style="shape=table;startSize=30;container=1;collapsible=1;childLayout=tableLayout;fixedRows=1;rowLines=0;fontStyle=1;align=center;resizeLast=1;" parent="1" vertex="1">
                    <mxGeometry x="480" y="200" width="250" height="130" as="geometry"/>
                </mxCell>
                <mxCell id="C-vyLk0tnHw3VtMMgP7b-3" value="" style="shape=partialRectangle;collapsible=0;dropTarget=0;pointerEvents=0;fillColor=none;points=[[0,0.5],[1,0.5]];portConstraint=eastwest;top=0;left=0;right=0;bottom=1;" parent="C-vyLk0tnHw3VtMMgP7b-2" vertex="1">
                    <mxGeometry y="30" width="250" height="30" as="geometry"/>
                </mxCell>
                <mxCell id="C-vyLk0tnHw3VtMMgP7b-4" value="PK" style="shape=partialRectangle;overflow=hidden;connectable=0;fillColor=none;top=0;left=0;bottom=0;right=0;fontStyle=1;" parent="C-vyLk0tnHw3VtMMgP7b-3" vertex="1">
                    <mxGeometry width="30" height="30" as="geometry"/>
                </mxCell>
                <mxCell id="C-vyLk0tnHw3VtMMgP7b-5" value="" style="shape=partialRectangle;overflow=hidden;connectable=0;fillColor=none;top=0;left=0;bottom=0;right=0;align=left;spacingLeft=6;fontStyle=5;" parent="C-vyLk0tnHw3VtMMgP7b-3" vertex="1">
                    <mxGeometry x="30" width="220" height="30" as="geometry"/>
                </mxCell>
                <mxCell id="C-vyLk0tnHw3VtMMgP7b-6" value="" style="shape=partialRectangle;collapsible=0;dropTarget=0;pointerEvents=0;fillColor=none;points=[[0,0.5],[1,0.5]];portConstraint=eastwest;top=0;left=0;right=0;bottom=0;" parent="C-vyLk0tnHw3VtMMgP7b-2" vertex="1">
                    <mxGeometry y="60" width="250" height="30" as="geometry"/>
                </mxCell>
                <mxCell id="C-vyLk0tnHw3VtMMgP7b-7" value="" style="shape=partialRectangle;overflow=hidden;connectable=0;fillColor=none;top=0;left=0;bottom=0;right=0;" parent="C-vyLk0tnHw3VtMMgP7b-6" vertex="1">
                    <mxGeometry width="30" height="30" as="geometry"/>
                </mxCell>
                <mxCell id="C-vyLk0tnHw3VtMMgP7b-8" value="" style="shape=partialRectangle;overflow=hidden;connectable=0;fillColor=none;top=0;left=0;bottom=0;right=0;align=left;spacingLeft=6;" parent="C-vyLk0tnHw3VtMMgP7b-6" vertex="1">
                    <mxGeometry x="30" width="220" height="30" as="geometry"/>
                </mxCell>
                <mxCell id="C-vyLk0tnHw3VtMMgP7b-9" value="" style="shape=partialRectangle;collapsible=0;dropTarget=0;pointerEvents=0;fillColor=none;points=[[0,0.5],[1,0.5]];portConstraint=eastwest;top=0;left=0;right=0;bottom=0;" parent="C-vyLk0tnHw3VtMMgP7b-2" vertex="1">
                    <mxGeometry y="90" width="250" height="30" as="geometry"/>
                </mxCell>
                <mxCell id="C-vyLk0tnHw3VtMMgP7b-10" value="" style="shape=partialRectangle;overflow=hidden;connectable=0;fillColor=none;top=0;left=0;bottom=0;right=0;" parent="C-vyLk0tnHw3VtMMgP7b-9" vertex="1">
                    <mxGeometry width="30" height="30" as="geometry"/>
                </mxCell>
                <mxCell id="C-vyLk0tnHw3VtMMgP7b-11" value="" style="shape=partialRectangle;overflow=hidden;connectable=0;fillColor=none;top=0;left=0;bottom=0;right=0;align=left;spacingLeft=6;" parent="C-vyLk0tnHw3VtMMgP7b-9" vertex="1">
                    <mxGeometry x="30" width="220" height="30" as="geometry"/>
                </mxCell>
                <mxCell id="4EHw12qrjTxByGc45qhq-64" style="edgeStyle=none;rounded=0;orthogonalLoop=1;jettySize=auto;html=1;entryX=0.072;entryY=-0.03;entryDx=0;entryDy=0;entryPerimeter=0;" parent="1" source="C-vyLk0tnHw3VtMMgP7b-13" target="4EHw12qrjTxByGc45qhq-54" edge="1">
                    <mxGeometry relative="1" as="geometry">
                        <Array as="points">
                            <mxPoint x="385" y="670"/>
                            <mxPoint x="590" y="670"/>
                        </Array>
                    </mxGeometry>
                </mxCell>
                <mxCell id="4EHw12qrjTxByGc45qhq-101" style="edgeStyle=none;rounded=0;orthogonalLoop=1;jettySize=auto;html=1;endArrow=classic;endFill=1;exitX=0.992;exitY=0.067;exitDx=0;exitDy=0;exitPerimeter=0;" parent="1" source="C-vyLk0tnHw3VtMMgP7b-14" edge="1">
                    <mxGeometry relative="1" as="geometry">
                        <mxPoint x="1399" y="355" as="targetPoint"/>
                        <Array as="points">
                            <mxPoint x="790" y="430"/>
                            <mxPoint x="790" y="355"/>
                            <mxPoint x="870" y="355"/>
                        </Array>
                    </mxGeometry>
                </mxCell>
                <mxCell id="C-vyLk0tnHw3VtMMgP7b-13" value="O365UserDomainsUsers_tbl" style="shape=table;startSize=30;container=1;collapsible=1;childLayout=tableLayout;fixedRows=1;rowLines=0;fontStyle=1;align=center;resizeLast=1;" parent="1" vertex="1">
                    <mxGeometry x="260" y="400" width="250" height="100" as="geometry"/>
                </mxCell>
                <mxCell id="C-vyLk0tnHw3VtMMgP7b-14" value="" style="shape=partialRectangle;collapsible=0;dropTarget=0;pointerEvents=0;fillColor=none;points=[[0,0.5],[1,0.5]];portConstraint=eastwest;top=0;left=0;right=0;bottom=1;" parent="C-vyLk0tnHw3VtMMgP7b-13" vertex="1">
                    <mxGeometry y="30" width="250" height="30" as="geometry"/>
                </mxCell>
                <mxCell id="C-vyLk0tnHw3VtMMgP7b-15" value="PK" style="shape=partialRectangle;overflow=hidden;connectable=0;fillColor=none;top=0;left=0;bottom=0;right=0;fontStyle=1;" parent="C-vyLk0tnHw3VtMMgP7b-14" vertex="1">
                    <mxGeometry width="30" height="30" as="geometry"/>
                </mxCell>
                <mxCell id="C-vyLk0tnHw3VtMMgP7b-16" value="" style="shape=partialRectangle;overflow=hidden;connectable=0;fillColor=none;top=0;left=0;bottom=0;right=0;align=left;spacingLeft=6;fontStyle=5;" parent="C-vyLk0tnHw3VtMMgP7b-14" vertex="1">
                    <mxGeometry x="30" width="220" height="30" as="geometry"/>
                </mxCell>
                <mxCell id="C-vyLk0tnHw3VtMMgP7b-20" value="" style="shape=partialRectangle;collapsible=0;dropTarget=0;pointerEvents=0;fillColor=none;points=[[0,0.5],[1,0.5]];portConstraint=eastwest;top=0;left=0;right=0;bottom=0;" parent="C-vyLk0tnHw3VtMMgP7b-13" vertex="1">
                    <mxGeometry y="60" width="250" height="30" as="geometry"/>
                </mxCell>
                <mxCell id="C-vyLk0tnHw3VtMMgP7b-21" value="" style="shape=partialRectangle;overflow=hidden;connectable=0;fillColor=none;top=0;left=0;bottom=0;right=0;" parent="C-vyLk0tnHw3VtMMgP7b-20" vertex="1">
                    <mxGeometry width="30" height="30" as="geometry"/>
                </mxCell>
                <mxCell id="C-vyLk0tnHw3VtMMgP7b-22" value="" style="shape=partialRectangle;overflow=hidden;connectable=0;fillColor=none;top=0;left=0;bottom=0;right=0;align=left;spacingLeft=6;" parent="C-vyLk0tnHw3VtMMgP7b-20" vertex="1">
                    <mxGeometry x="30" width="220" height="30" as="geometry"/>
                </mxCell>
                <mxCell id="C-vyLk0tnHw3VtMMgP7b-23" value="O365AUMapping" style="shape=table;startSize=30;container=1;collapsible=1;childLayout=tableLayout;fixedRows=1;rowLines=0;fontStyle=1;align=center;resizeLast=1;" parent="1" vertex="1">
                    <mxGeometry x="-100" y="197.5" width="250" height="100" as="geometry"/>
                </mxCell>
                <mxCell id="C-vyLk0tnHw3VtMMgP7b-24" value="" style="shape=partialRectangle;collapsible=0;dropTarget=0;pointerEvents=0;fillColor=none;points=[[0,0.5],[1,0.5]];portConstraint=eastwest;top=0;left=0;right=0;bottom=1;" parent="C-vyLk0tnHw3VtMMgP7b-23" vertex="1">
                    <mxGeometry y="30" width="250" height="30" as="geometry"/>
                </mxCell>
                <mxCell id="C-vyLk0tnHw3VtMMgP7b-25" value="PK" style="shape=partialRectangle;overflow=hidden;connectable=0;fillColor=none;top=0;left=0;bottom=0;right=0;fontStyle=1;" parent="C-vyLk0tnHw3VtMMgP7b-24" vertex="1">
                    <mxGeometry width="30" height="30" as="geometry"/>
                </mxCell>
                <mxCell id="C-vyLk0tnHw3VtMMgP7b-26" value="" style="shape=partialRectangle;overflow=hidden;connectable=0;fillColor=none;top=0;left=0;bottom=0;right=0;align=left;spacingLeft=6;fontStyle=5;" parent="C-vyLk0tnHw3VtMMgP7b-24" vertex="1">
                    <mxGeometry x="30" width="220" height="30" as="geometry"/>
                </mxCell>
                <mxCell id="C-vyLk0tnHw3VtMMgP7b-27" value="" style="shape=partialRectangle;collapsible=0;dropTarget=0;pointerEvents=0;fillColor=none;points=[[0,0.5],[1,0.5]];portConstraint=eastwest;top=0;left=0;right=0;bottom=0;" parent="C-vyLk0tnHw3VtMMgP7b-23" vertex="1">
                    <mxGeometry y="60" width="250" height="30" as="geometry"/>
                </mxCell>
                <mxCell id="C-vyLk0tnHw3VtMMgP7b-28" value="" style="shape=partialRectangle;overflow=hidden;connectable=0;fillColor=none;top=0;left=0;bottom=0;right=0;" parent="C-vyLk0tnHw3VtMMgP7b-27" vertex="1">
                    <mxGeometry width="30" height="30" as="geometry"/>
                </mxCell>
                <mxCell id="C-vyLk0tnHw3VtMMgP7b-29" value="" style="shape=partialRectangle;overflow=hidden;connectable=0;fillColor=none;top=0;left=0;bottom=0;right=0;align=left;spacingLeft=6;" parent="C-vyLk0tnHw3VtMMgP7b-27" vertex="1">
                    <mxGeometry x="30" width="220" height="30" as="geometry"/>
                </mxCell>
                <mxCell id="4EHw12qrjTxByGc45qhq-39" style="edgeStyle=none;rounded=0;orthogonalLoop=1;jettySize=auto;html=1;" parent="1" target="C-vyLk0tnHw3VtMMgP7b-23" edge="1">
                    <mxGeometry relative="1" as="geometry">
                        <mxPoint x="25" y="90" as="sourcePoint"/>
                        <Array as="points">
                            <mxPoint x="25" y="90"/>
                        </Array>
                    </mxGeometry>
                </mxCell>
                <mxCell id="MU8n-7caOR68o1KwIRi--4" value="O365AU" style="shape=table;startSize=30;container=1;collapsible=1;childLayout=tableLayout;fixedRows=1;rowLines=0;fontStyle=1;align=center;resizeLast=1;" parent="1" vertex="1">
                    <mxGeometry x="-110" y="-10" width="250" height="100" as="geometry"/>
                </mxCell>
                <mxCell id="MU8n-7caOR68o1KwIRi--5" value="" style="shape=partialRectangle;collapsible=0;dropTarget=0;pointerEvents=0;fillColor=none;points=[[0,0.5],[1,0.5]];portConstraint=eastwest;top=0;left=0;right=0;bottom=1;" parent="MU8n-7caOR68o1KwIRi--4" vertex="1">
                    <mxGeometry y="30" width="250" height="30" as="geometry"/>
                </mxCell>
                <mxCell id="MU8n-7caOR68o1KwIRi--6" value="PK" style="shape=partialRectangle;overflow=hidden;connectable=0;fillColor=none;top=0;left=0;bottom=0;right=0;fontStyle=1;" parent="MU8n-7caOR68o1KwIRi--5" vertex="1">
                    <mxGeometry width="30" height="30" as="geometry"/>
                </mxCell>
                <mxCell id="MU8n-7caOR68o1KwIRi--7" value="" style="shape=partialRectangle;overflow=hidden;connectable=0;fillColor=none;top=0;left=0;bottom=0;right=0;align=left;spacingLeft=6;fontStyle=5;" parent="MU8n-7caOR68o1KwIRi--5" vertex="1">
                    <mxGeometry x="30" width="220" height="30" as="geometry"/>
                </mxCell>
                <mxCell id="MU8n-7caOR68o1KwIRi--8" value="" style="shape=partialRectangle;collapsible=0;dropTarget=0;pointerEvents=0;fillColor=none;points=[[0,0.5],[1,0.5]];portConstraint=eastwest;top=0;left=0;right=0;bottom=0;" parent="MU8n-7caOR68o1KwIRi--4" vertex="1">
                    <mxGeometry y="60" width="250" height="30" as="geometry"/>
                </mxCell>
                <mxCell id="MU8n-7caOR68o1KwIRi--9" value="" style="shape=partialRectangle;overflow=hidden;connectable=0;fillColor=none;top=0;left=0;bottom=0;right=0;" parent="MU8n-7caOR68o1KwIRi--8" vertex="1">
                    <mxGeometry width="30" height="30" as="geometry"/>
                </mxCell>
                <mxCell id="MU8n-7caOR68o1KwIRi--10" value="" style="shape=partialRectangle;overflow=hidden;connectable=0;fillColor=none;top=0;left=0;bottom=0;right=0;align=left;spacingLeft=6;" parent="MU8n-7caOR68o1KwIRi--8" vertex="1">
                    <mxGeometry x="30" width="220" height="30" as="geometry"/>
                </mxCell>
                <mxCell id="4EHw12qrjTxByGc45qhq-23" style="edgeStyle=none;rounded=0;orthogonalLoop=1;jettySize=auto;html=1;entryX=0.25;entryY=0;entryDx=0;entryDy=0;exitX=1.008;exitY=0.2;exitDx=0;exitDy=0;exitPerimeter=0;" parent="1" source="MU8n-7caOR68o1KwIRi--12" target="MU8n-7caOR68o1KwIRi--26" edge="1">
                    <mxGeometry relative="1" as="geometry">
                        <Array as="points">
                            <mxPoint x="330" y="596"/>
                            <mxPoint x="363" y="596"/>
                        </Array>
                    </mxGeometry>
                </mxCell>
                <mxCell id="4EHw12qrjTxByGc45qhq-75" style="edgeStyle=none;rounded=0;orthogonalLoop=1;jettySize=auto;html=1;entryX=0.25;entryY=0;entryDx=0;entryDy=0;endArrow=diamond;endFill=1;" parent="1" target="4EHw12qrjTxByGc45qhq-68" edge="1">
                    <mxGeometry relative="1" as="geometry">
                        <mxPoint x="210" y="810" as="targetPoint"/>
                        <mxPoint x="217" y="660" as="sourcePoint"/>
                        <Array as="points">
                            <mxPoint x="217" y="820"/>
                            <mxPoint x="353" y="820"/>
                        </Array>
                    </mxGeometry>
                </mxCell>
                <mxCell id="MU8n-7caOR68o1KwIRi--11" value="O365RegisteredApplications" style="shape=table;startSize=30;container=1;collapsible=1;childLayout=tableLayout;fixedRows=1;rowLines=0;fontStyle=1;align=center;resizeLast=1;" parent="1" vertex="1">
                    <mxGeometry x="100" y="560" width="220" height="100" as="geometry"/>
                </mxCell>
                <mxCell id="MU8n-7caOR68o1KwIRi--12" value="" style="shape=partialRectangle;collapsible=0;dropTarget=0;pointerEvents=0;fillColor=none;points=[[0,0.5],[1,0.5]];portConstraint=eastwest;top=0;left=0;right=0;bottom=1;" parent="MU8n-7caOR68o1KwIRi--11" vertex="1">
                    <mxGeometry y="30" width="220" height="30" as="geometry"/>
                </mxCell>
                <mxCell id="MU8n-7caOR68o1KwIRi--13" value="PK" style="shape=partialRectangle;overflow=hidden;connectable=0;fillColor=none;top=0;left=0;bottom=0;right=0;fontStyle=1;" parent="MU8n-7caOR68o1KwIRi--12" vertex="1">
                    <mxGeometry width="30" height="30" as="geometry"/>
                </mxCell>
                <mxCell id="MU8n-7caOR68o1KwIRi--14" value="" style="shape=partialRectangle;overflow=hidden;connectable=0;fillColor=none;top=0;left=0;bottom=0;right=0;align=left;spacingLeft=6;fontStyle=5;" parent="MU8n-7caOR68o1KwIRi--12" vertex="1">
                    <mxGeometry x="30" width="190" height="30" as="geometry"/>
                </mxCell>
                <mxCell id="MU8n-7caOR68o1KwIRi--15" value="" style="shape=partialRectangle;collapsible=0;dropTarget=0;pointerEvents=0;fillColor=none;points=[[0,0.5],[1,0.5]];portConstraint=eastwest;top=0;left=0;right=0;bottom=0;" parent="MU8n-7caOR68o1KwIRi--11" vertex="1">
                    <mxGeometry y="60" width="220" height="30" as="geometry"/>
                </mxCell>
                <mxCell id="MU8n-7caOR68o1KwIRi--16" value="" style="shape=partialRectangle;overflow=hidden;connectable=0;fillColor=none;top=0;left=0;bottom=0;right=0;" parent="MU8n-7caOR68o1KwIRi--15" vertex="1">
                    <mxGeometry width="30" height="30" as="geometry"/>
                </mxCell>
                <mxCell id="MU8n-7caOR68o1KwIRi--17" value="" style="shape=partialRectangle;overflow=hidden;connectable=0;fillColor=none;top=0;left=0;bottom=0;right=0;align=left;spacingLeft=6;" parent="MU8n-7caOR68o1KwIRi--15" vertex="1">
                    <mxGeometry x="30" width="190" height="30" as="geometry"/>
                </mxCell>
                <mxCell id="MU8n-7caOR68o1KwIRi--33" style="edgeStyle=orthogonalEdgeStyle;rounded=0;orthogonalLoop=1;jettySize=auto;html=1;" parent="1" source="MU8n-7caOR68o1KwIRi--18" target="MU8n-7caOR68o1KwIRi--26" edge="1">
                    <mxGeometry relative="1" as="geometry"/>
                </mxCell>
                <mxCell id="MU8n-7caOR68o1KwIRi--50" style="edgeStyle=orthogonalEdgeStyle;rounded=0;orthogonalLoop=1;jettySize=auto;html=1;exitX=0.5;exitY=1;exitDx=0;exitDy=0;entryX=0.5;entryY=0;entryDx=0;entryDy=0;" parent="1" source="MU8n-7caOR68o1KwIRi--18" target="MU8n-7caOR68o1KwIRi--43" edge="1">
                    <mxGeometry relative="1" as="geometry">
                        <mxPoint x="805" y="630" as="targetPoint"/>
                    </mxGeometry>
                </mxCell>
                <mxCell id="H-VeI4tqfpoL3jdRFG1W-8" style="edgeStyle=orthogonalEdgeStyle;rounded=0;orthogonalLoop=1;jettySize=auto;html=1;entryX=0.292;entryY=-0.04;entryDx=0;entryDy=0;entryPerimeter=0;endArrow=classic;endFill=1;" parent="1" source="MU8n-7caOR68o1KwIRi--18" target="4EHw12qrjTxByGc45qhq-31" edge="1">
                    <mxGeometry relative="1" as="geometry"/>
                </mxCell>
                <mxCell id="H-VeI4tqfpoL3jdRFG1W-9" style="edgeStyle=orthogonalEdgeStyle;rounded=0;orthogonalLoop=1;jettySize=auto;html=1;endArrow=classic;endFill=1;" parent="1" source="MU8n-7caOR68o1KwIRi--18" target="4EHw12qrjTxByGc45qhq-55" edge="1">
                    <mxGeometry relative="1" as="geometry">
                        <mxPoint x="990" y="930" as="targetPoint"/>
                        <Array as="points">
                            <mxPoint x="1050" y="560"/>
                            <mxPoint x="1050" y="930"/>
                        </Array>
                    </mxGeometry>
                </mxCell>
                <mxCell id="MU8n-7caOR68o1KwIRi--18" value="O365MarketPlaceApplications" style="shape=table;startSize=30;container=1;collapsible=1;childLayout=tableLayout;fixedRows=1;rowLines=0;fontStyle=1;align=center;resizeLast=1;" parent="1" vertex="1">
                    <mxGeometry x="680" y="490" width="250" height="100" as="geometry"/>
                </mxCell>
                <mxCell id="MU8n-7caOR68o1KwIRi--19" value="" style="shape=partialRectangle;collapsible=0;dropTarget=0;pointerEvents=0;fillColor=none;points=[[0,0.5],[1,0.5]];portConstraint=eastwest;top=0;left=0;right=0;bottom=1;" parent="MU8n-7caOR68o1KwIRi--18" vertex="1">
                    <mxGeometry y="30" width="250" height="30" as="geometry"/>
                </mxCell>
                <mxCell id="MU8n-7caOR68o1KwIRi--20" value="PK" style="shape=partialRectangle;overflow=hidden;connectable=0;fillColor=none;top=0;left=0;bottom=0;right=0;fontStyle=1;" parent="MU8n-7caOR68o1KwIRi--19" vertex="1">
                    <mxGeometry width="30" height="30" as="geometry"/>
                </mxCell>
                <mxCell id="MU8n-7caOR68o1KwIRi--21" value="" style="shape=partialRectangle;overflow=hidden;connectable=0;fillColor=none;top=0;left=0;bottom=0;right=0;align=left;spacingLeft=6;fontStyle=5;" parent="MU8n-7caOR68o1KwIRi--19" vertex="1">
                    <mxGeometry x="30" width="220" height="30" as="geometry"/>
                </mxCell>
                <mxCell id="MU8n-7caOR68o1KwIRi--22" value="" style="shape=partialRectangle;collapsible=0;dropTarget=0;pointerEvents=0;fillColor=none;points=[[0,0.5],[1,0.5]];portConstraint=eastwest;top=0;left=0;right=0;bottom=0;" parent="MU8n-7caOR68o1KwIRi--18" vertex="1">
                    <mxGeometry y="60" width="250" height="30" as="geometry"/>
                </mxCell>
                <mxCell id="MU8n-7caOR68o1KwIRi--23" value="" style="shape=partialRectangle;overflow=hidden;connectable=0;fillColor=none;top=0;left=0;bottom=0;right=0;" parent="MU8n-7caOR68o1KwIRi--22" vertex="1">
                    <mxGeometry width="30" height="30" as="geometry"/>
                </mxCell>
                <mxCell id="MU8n-7caOR68o1KwIRi--24" value="" style="shape=partialRectangle;overflow=hidden;connectable=0;fillColor=none;top=0;left=0;bottom=0;right=0;align=left;spacingLeft=6;" parent="MU8n-7caOR68o1KwIRi--22" vertex="1">
                    <mxGeometry x="30" width="220" height="30" as="geometry"/>
                </mxCell>
                <mxCell id="MU8n-7caOR68o1KwIRi--26" value="O365ApplicationsMembers" style="shape=table;startSize=30;container=1;collapsible=1;childLayout=tableLayout;fixedRows=1;rowLines=0;fontStyle=1;align=center;resizeLast=1;" parent="1" vertex="1">
                    <mxGeometry x="300" y="700" width="250" height="100" as="geometry"/>
                </mxCell>
                <mxCell id="MU8n-7caOR68o1KwIRi--27" value="" style="shape=partialRectangle;collapsible=0;dropTarget=0;pointerEvents=0;fillColor=none;points=[[0,0.5],[1,0.5]];portConstraint=eastwest;top=0;left=0;right=0;bottom=1;" parent="MU8n-7caOR68o1KwIRi--26" vertex="1">
                    <mxGeometry y="30" width="250" height="30" as="geometry"/>
                </mxCell>
                <mxCell id="MU8n-7caOR68o1KwIRi--28" value="PK" style="shape=partialRectangle;overflow=hidden;connectable=0;fillColor=none;top=0;left=0;bottom=0;right=0;fontStyle=1;" parent="MU8n-7caOR68o1KwIRi--27" vertex="1">
                    <mxGeometry width="30" height="30" as="geometry"/>
                </mxCell>
                <mxCell id="MU8n-7caOR68o1KwIRi--29" value="owner, user, group" style="shape=partialRectangle;overflow=hidden;connectable=0;fillColor=none;top=0;left=0;bottom=0;right=0;align=left;spacingLeft=6;fontStyle=5;" parent="MU8n-7caOR68o1KwIRi--27" vertex="1">
                    <mxGeometry x="30" width="220" height="30" as="geometry"/>
                </mxCell>
                <mxCell id="MU8n-7caOR68o1KwIRi--30" value="" style="shape=partialRectangle;collapsible=0;dropTarget=0;pointerEvents=0;fillColor=none;points=[[0,0.5],[1,0.5]];portConstraint=eastwest;top=0;left=0;right=0;bottom=0;" parent="MU8n-7caOR68o1KwIRi--26" vertex="1">
                    <mxGeometry y="60" width="250" height="30" as="geometry"/>
                </mxCell>
                <mxCell id="MU8n-7caOR68o1KwIRi--31" value="" style="shape=partialRectangle;overflow=hidden;connectable=0;fillColor=none;top=0;left=0;bottom=0;right=0;" parent="MU8n-7caOR68o1KwIRi--30" vertex="1">
                    <mxGeometry width="30" height="30" as="geometry"/>
                </mxCell>
                <mxCell id="MU8n-7caOR68o1KwIRi--32" value="" style="shape=partialRectangle;overflow=hidden;connectable=0;fillColor=none;top=0;left=0;bottom=0;right=0;align=left;spacingLeft=6;" parent="MU8n-7caOR68o1KwIRi--30" vertex="1">
                    <mxGeometry x="30" width="220" height="30" as="geometry"/>
                </mxCell>
                <mxCell id="MU8n-7caOR68o1KwIRi--43" value="O365ApplicationsPermissions" style="shape=table;startSize=30;container=1;collapsible=1;childLayout=tableLayout;fixedRows=1;rowLines=0;fontStyle=1;align=center;resizeLast=1;" parent="1" vertex="1">
                    <mxGeometry x="680" y="640" width="250" height="100" as="geometry"/>
                </mxCell>
                <mxCell id="MU8n-7caOR68o1KwIRi--44" value="" style="shape=partialRectangle;collapsible=0;dropTarget=0;pointerEvents=0;fillColor=none;points=[[0,0.5],[1,0.5]];portConstraint=eastwest;top=0;left=0;right=0;bottom=1;" parent="MU8n-7caOR68o1KwIRi--43" vertex="1">
                    <mxGeometry y="30" width="250" height="30" as="geometry"/>
                </mxCell>
                <mxCell id="MU8n-7caOR68o1KwIRi--45" value="PK" style="shape=partialRectangle;overflow=hidden;connectable=0;fillColor=none;top=0;left=0;bottom=0;right=0;fontStyle=1;" parent="MU8n-7caOR68o1KwIRi--44" vertex="1">
                    <mxGeometry width="30" height="30" as="geometry"/>
                </mxCell>
                <mxCell id="MU8n-7caOR68o1KwIRi--46" value="" style="shape=partialRectangle;overflow=hidden;connectable=0;fillColor=none;top=0;left=0;bottom=0;right=0;align=left;spacingLeft=6;fontStyle=5;" parent="MU8n-7caOR68o1KwIRi--44" vertex="1">
                    <mxGeometry x="30" width="220" height="30" as="geometry"/>
                </mxCell>
                <mxCell id="MU8n-7caOR68o1KwIRi--47" value="" style="shape=partialRectangle;collapsible=0;dropTarget=0;pointerEvents=0;fillColor=none;points=[[0,0.5],[1,0.5]];portConstraint=eastwest;top=0;left=0;right=0;bottom=0;" parent="MU8n-7caOR68o1KwIRi--43" vertex="1">
                    <mxGeometry y="60" width="250" height="30" as="geometry"/>
                </mxCell>
                <mxCell id="MU8n-7caOR68o1KwIRi--48" value="" style="shape=partialRectangle;overflow=hidden;connectable=0;fillColor=none;top=0;left=0;bottom=0;right=0;" parent="MU8n-7caOR68o1KwIRi--47" vertex="1">
                    <mxGeometry width="30" height="30" as="geometry"/>
                </mxCell>
                <mxCell id="MU8n-7caOR68o1KwIRi--49" value="" style="shape=partialRectangle;overflow=hidden;connectable=0;fillColor=none;top=0;left=0;bottom=0;right=0;align=left;spacingLeft=6;" parent="MU8n-7caOR68o1KwIRi--47" vertex="1">
                    <mxGeometry x="30" width="220" height="30" as="geometry"/>
                </mxCell>
                <mxCell id="4EHw12qrjTxByGc45qhq-83" style="edgeStyle=none;rounded=0;orthogonalLoop=1;jettySize=auto;html=1;endArrow=classic;endFill=1;entryX=0.32;entryY=1.333;entryDx=0;entryDy=0;entryPerimeter=0;exitX=0.472;exitY=0.02;exitDx=0;exitDy=0;exitPerimeter=0;" parent="1" source="4EHw12qrjTxByGc45qhq-1" target="4EHw12qrjTxByGc45qhq-80" edge="1">
                    <mxGeometry relative="1" as="geometry">
                        <mxPoint x="1010" y="150" as="targetPoint"/>
                    </mxGeometry>
                </mxCell>
                <mxCell id="4EHw12qrjTxByGc45qhq-1" value="AzureADLicensedMembers" style="shape=table;startSize=30;container=1;collapsible=1;childLayout=tableLayout;fixedRows=1;rowLines=0;fontStyle=1;align=center;resizeLast=1;" parent="1" vertex="1">
                    <mxGeometry x="880" y="360" width="250" height="100" as="geometry"/>
                </mxCell>
                <mxCell id="4EHw12qrjTxByGc45qhq-2" value="" style="shape=partialRectangle;collapsible=0;dropTarget=0;pointerEvents=0;fillColor=none;points=[[0,0.5],[1,0.5]];portConstraint=eastwest;top=0;left=0;right=0;bottom=1;" parent="4EHw12qrjTxByGc45qhq-1" vertex="1">
                    <mxGeometry y="30" width="250" height="30" as="geometry"/>
                </mxCell>
                <mxCell id="4EHw12qrjTxByGc45qhq-3" value="PK" style="shape=partialRectangle;overflow=hidden;connectable=0;fillColor=none;top=0;left=0;bottom=0;right=0;fontStyle=1;" parent="4EHw12qrjTxByGc45qhq-2" vertex="1">
                    <mxGeometry width="30" height="30" as="geometry"/>
                </mxCell>
                <mxCell id="4EHw12qrjTxByGc45qhq-4" value="Users, Groups" style="shape=partialRectangle;overflow=hidden;connectable=0;fillColor=none;top=0;left=0;bottom=0;right=0;align=left;spacingLeft=6;fontStyle=5;" parent="4EHw12qrjTxByGc45qhq-2" vertex="1">
                    <mxGeometry x="30" width="220" height="30" as="geometry"/>
                </mxCell>
                <mxCell id="4EHw12qrjTxByGc45qhq-5" value="" style="shape=partialRectangle;collapsible=0;dropTarget=0;pointerEvents=0;fillColor=none;points=[[0,0.5],[1,0.5]];portConstraint=eastwest;top=0;left=0;right=0;bottom=0;" parent="4EHw12qrjTxByGc45qhq-1" vertex="1">
                    <mxGeometry y="60" width="250" height="30" as="geometry"/>
                </mxCell>
                <mxCell id="4EHw12qrjTxByGc45qhq-6" value="" style="shape=partialRectangle;overflow=hidden;connectable=0;fillColor=none;top=0;left=0;bottom=0;right=0;" parent="4EHw12qrjTxByGc45qhq-5" vertex="1">
                    <mxGeometry width="30" height="30" as="geometry"/>
                </mxCell>
                <mxCell id="4EHw12qrjTxByGc45qhq-7" value="" style="shape=partialRectangle;overflow=hidden;connectable=0;fillColor=none;top=0;left=0;bottom=0;right=0;align=left;spacingLeft=6;" parent="4EHw12qrjTxByGc45qhq-5" vertex="1">
                    <mxGeometry x="30" width="220" height="30" as="geometry"/>
                </mxCell>
                <mxCell id="4EHw12qrjTxByGc45qhq-31" value="AzureADRoleMembers" style="shape=table;startSize=30;container=1;collapsible=1;childLayout=tableLayout;fixedRows=1;rowLines=0;fontStyle=1;align=center;resizeLast=1;" parent="1" vertex="1">
                    <mxGeometry x="1100" y="700" width="250" height="100" as="geometry"/>
                </mxCell>
                <mxCell id="4EHw12qrjTxByGc45qhq-32" value="" style="shape=partialRectangle;collapsible=0;dropTarget=0;pointerEvents=0;fillColor=none;points=[[0,0.5],[1,0.5]];portConstraint=eastwest;top=0;left=0;right=0;bottom=1;" parent="4EHw12qrjTxByGc45qhq-31" vertex="1">
                    <mxGeometry y="30" width="250" height="30" as="geometry"/>
                </mxCell>
                <mxCell id="4EHw12qrjTxByGc45qhq-33" value="PK" style="shape=partialRectangle;overflow=hidden;connectable=0;fillColor=none;top=0;left=0;bottom=0;right=0;fontStyle=1;" parent="4EHw12qrjTxByGc45qhq-32" vertex="1">
                    <mxGeometry width="30" height="30" as="geometry"/>
                </mxCell>
                <mxCell id="4EHw12qrjTxByGc45qhq-34" value="users, groups, servicePrincipal" style="shape=partialRectangle;overflow=hidden;connectable=0;fillColor=none;top=0;left=0;bottom=0;right=0;align=left;spacingLeft=6;fontStyle=5;" parent="4EHw12qrjTxByGc45qhq-32" vertex="1">
                    <mxGeometry x="30" width="220" height="30" as="geometry"/>
                </mxCell>
                <mxCell id="4EHw12qrjTxByGc45qhq-35" value="" style="shape=partialRectangle;collapsible=0;dropTarget=0;pointerEvents=0;fillColor=none;points=[[0,0.5],[1,0.5]];portConstraint=eastwest;top=0;left=0;right=0;bottom=0;" parent="4EHw12qrjTxByGc45qhq-31" vertex="1">
                    <mxGeometry y="60" width="250" height="30" as="geometry"/>
                </mxCell>
                <mxCell id="4EHw12qrjTxByGc45qhq-36" value="" style="shape=partialRectangle;overflow=hidden;connectable=0;fillColor=none;top=0;left=0;bottom=0;right=0;" parent="4EHw12qrjTxByGc45qhq-35" vertex="1">
                    <mxGeometry width="30" height="30" as="geometry"/>
                </mxCell>
                <mxCell id="4EHw12qrjTxByGc45qhq-37" value="" style="shape=partialRectangle;overflow=hidden;connectable=0;fillColor=none;top=0;left=0;bottom=0;right=0;align=left;spacingLeft=6;" parent="4EHw12qrjTxByGc45qhq-35" vertex="1">
                    <mxGeometry x="30" width="220" height="30" as="geometry"/>
                </mxCell>
                <mxCell id="4EHw12qrjTxByGc45qhq-44" style="edgeStyle=none;rounded=0;orthogonalLoop=1;jettySize=auto;html=1;entryX=0.124;entryY=0.02;entryDx=0;entryDy=0;entryPerimeter=0;exitX=1;exitY=0.5;exitDx=0;exitDy=0;" parent="1" source="C-vyLk0tnHw3VtMMgP7b-6" target="4EHw12qrjTxByGc45qhq-1" edge="1">
                    <mxGeometry relative="1" as="geometry">
                        <Array as="points">
                            <mxPoint x="910" y="275"/>
                        </Array>
                    </mxGeometry>
                </mxCell>
                <mxCell id="4EHw12qrjTxByGc45qhq-46" value="AzureADAuthenticationMethods" style="shape=table;startSize=30;container=1;collapsible=1;childLayout=tableLayout;fixedRows=1;rowLines=0;fontStyle=1;align=center;resizeLast=1;" parent="1" vertex="1">
                    <mxGeometry x="10" y="840" width="250" height="100" as="geometry"/>
                </mxCell>
                <mxCell id="4EHw12qrjTxByGc45qhq-47" value="" style="shape=partialRectangle;collapsible=0;dropTarget=0;pointerEvents=0;fillColor=none;points=[[0,0.5],[1,0.5]];portConstraint=eastwest;top=0;left=0;right=0;bottom=1;" parent="4EHw12qrjTxByGc45qhq-46" vertex="1">
                    <mxGeometry y="30" width="250" height="30" as="geometry"/>
                </mxCell>
                <mxCell id="4EHw12qrjTxByGc45qhq-48" value="PK" style="shape=partialRectangle;overflow=hidden;connectable=0;fillColor=none;top=0;left=0;bottom=0;right=0;fontStyle=1;" parent="4EHw12qrjTxByGc45qhq-47" vertex="1">
                    <mxGeometry width="30" height="30" as="geometry"/>
                </mxCell>
                <mxCell id="4EHw12qrjTxByGc45qhq-49" value="" style="shape=partialRectangle;overflow=hidden;connectable=0;fillColor=none;top=0;left=0;bottom=0;right=0;align=left;spacingLeft=6;fontStyle=5;" parent="4EHw12qrjTxByGc45qhq-47" vertex="1">
                    <mxGeometry x="30" width="220" height="30" as="geometry"/>
                </mxCell>
                <mxCell id="4EHw12qrjTxByGc45qhq-50" value="" style="shape=partialRectangle;collapsible=0;dropTarget=0;pointerEvents=0;fillColor=none;points=[[0,0.5],[1,0.5]];portConstraint=eastwest;top=0;left=0;right=0;bottom=0;" parent="4EHw12qrjTxByGc45qhq-46" vertex="1">
                    <mxGeometry y="60" width="250" height="30" as="geometry"/>
                </mxCell>
                <mxCell id="4EHw12qrjTxByGc45qhq-51" value="" style="shape=partialRectangle;overflow=hidden;connectable=0;fillColor=none;top=0;left=0;bottom=0;right=0;" parent="4EHw12qrjTxByGc45qhq-50" vertex="1">
                    <mxGeometry width="30" height="30" as="geometry"/>
                </mxCell>
                <mxCell id="4EHw12qrjTxByGc45qhq-52" value="" style="shape=partialRectangle;overflow=hidden;connectable=0;fillColor=none;top=0;left=0;bottom=0;right=0;align=left;spacingLeft=6;" parent="4EHw12qrjTxByGc45qhq-50" vertex="1">
                    <mxGeometry x="30" width="220" height="30" as="geometry"/>
                </mxCell>
                <mxCell id="4EHw12qrjTxByGc45qhq-110" style="edgeStyle=none;rounded=0;orthogonalLoop=1;jettySize=auto;html=1;endArrow=classic;endFill=1;exitX=1.004;exitY=0.17;exitDx=0;exitDy=0;exitPerimeter=0;" parent="1" source="4EHw12qrjTxByGc45qhq-54" edge="1">
                    <mxGeometry relative="1" as="geometry">
                        <mxPoint x="1750" y="600" as="targetPoint"/>
                        <Array as="points">
                            <mxPoint x="1750" y="897"/>
                        </Array>
                    </mxGeometry>
                </mxCell>
                <mxCell id="4EHw12qrjTxByGc45qhq-155" style="edgeStyle=none;rounded=0;orthogonalLoop=1;jettySize=auto;html=1;endArrow=classic;endFill=1;" parent="1" source="4EHw12qrjTxByGc45qhq-58" edge="1">
                    <mxGeometry relative="1" as="geometry">
                        <mxPoint x="2660" y="260" as="targetPoint"/>
                        <Array as="points">
                            <mxPoint x="2320" y="955"/>
                            <mxPoint x="2660" y="955"/>
                            <mxPoint x="2660" y="580"/>
                            <mxPoint x="2660" y="420"/>
                        </Array>
                    </mxGeometry>
                </mxCell>
                <mxCell id="4EHw12qrjTxByGc45qhq-54" value="AzureADDirectoryRoles" style="shape=table;startSize=30;container=1;collapsible=1;childLayout=tableLayout;fixedRows=1;rowLines=0;fontStyle=1;align=center;resizeLast=1;" parent="1" vertex="1">
                    <mxGeometry x="570" y="880" width="250" height="100" as="geometry"/>
                </mxCell>
                <mxCell id="4EHw12qrjTxByGc45qhq-55" value="" style="shape=partialRectangle;collapsible=0;dropTarget=0;pointerEvents=0;fillColor=none;points=[[0,0.5],[1,0.5]];portConstraint=eastwest;top=0;left=0;right=0;bottom=1;" parent="4EHw12qrjTxByGc45qhq-54" vertex="1">
                    <mxGeometry y="30" width="250" height="30" as="geometry"/>
                </mxCell>
                <mxCell id="4EHw12qrjTxByGc45qhq-56" value="PK" style="shape=partialRectangle;overflow=hidden;connectable=0;fillColor=none;top=0;left=0;bottom=0;right=0;fontStyle=1;" parent="4EHw12qrjTxByGc45qhq-55" vertex="1">
                    <mxGeometry width="30" height="30" as="geometry"/>
                </mxCell>
                <mxCell id="4EHw12qrjTxByGc45qhq-57" value="" style="shape=partialRectangle;overflow=hidden;connectable=0;fillColor=none;top=0;left=0;bottom=0;right=0;align=left;spacingLeft=6;fontStyle=5;" parent="4EHw12qrjTxByGc45qhq-55" vertex="1">
                    <mxGeometry x="30" width="220" height="30" as="geometry"/>
                </mxCell>
                <mxCell id="4EHw12qrjTxByGc45qhq-58" value="" style="shape=partialRectangle;collapsible=0;dropTarget=0;pointerEvents=0;fillColor=none;points=[[0,0.5],[1,0.5]];portConstraint=eastwest;top=0;left=0;right=0;bottom=0;" parent="4EHw12qrjTxByGc45qhq-54" vertex="1">
                    <mxGeometry y="60" width="250" height="30" as="geometry"/>
                </mxCell>
                <mxCell id="4EHw12qrjTxByGc45qhq-59" value="" style="shape=partialRectangle;overflow=hidden;connectable=0;fillColor=none;top=0;left=0;bottom=0;right=0;" parent="4EHw12qrjTxByGc45qhq-58" vertex="1">
                    <mxGeometry width="30" height="30" as="geometry"/>
                </mxCell>
                <mxCell id="4EHw12qrjTxByGc45qhq-60" value="" style="shape=partialRectangle;overflow=hidden;connectable=0;fillColor=none;top=0;left=0;bottom=0;right=0;align=left;spacingLeft=6;" parent="4EHw12qrjTxByGc45qhq-58" vertex="1">
                    <mxGeometry x="30" width="220" height="30" as="geometry"/>
                </mxCell>
                <mxCell id="H-VeI4tqfpoL3jdRFG1W-1" style="edgeStyle=orthogonalEdgeStyle;rounded=0;orthogonalLoop=1;jettySize=auto;html=1;" parent="1" source="C-vyLk0tnHw3VtMMgP7b-14" edge="1">
                    <mxGeometry relative="1" as="geometry">
                        <mxPoint x="30" y="300" as="targetPoint"/>
                    </mxGeometry>
                </mxCell>
                <mxCell id="H-VeI4tqfpoL3jdRFG1W-2" style="edgeStyle=orthogonalEdgeStyle;rounded=0;orthogonalLoop=1;jettySize=auto;html=1;" parent="1" source="C-vyLk0tnHw3VtMMgP7b-14" edge="1">
                    <mxGeometry relative="1" as="geometry">
                        <mxPoint x="880" y="445" as="targetPoint"/>
                    </mxGeometry>
                </mxCell>
                <mxCell id="H-VeI4tqfpoL3jdRFG1W-4" style="edgeStyle=orthogonalEdgeStyle;rounded=0;orthogonalLoop=1;jettySize=auto;html=1;entryX=1;entryY=0.5;entryDx=0;entryDy=0;" parent="1" source="C-vyLk0tnHw3VtMMgP7b-6" target="C-vyLk0tnHw3VtMMgP7b-27" edge="1">
                    <mxGeometry relative="1" as="geometry">
                        <Array as="points">
                            <mxPoint x="315" y="273"/>
                        </Array>
                    </mxGeometry>
                </mxCell>
                <mxCell id="H-VeI4tqfpoL3jdRFG1W-5" style="edgeStyle=orthogonalEdgeStyle;rounded=0;orthogonalLoop=1;jettySize=auto;html=1;endArrow=classic;endFill=1;" parent="1" source="4EHw12qrjTxByGc45qhq-58" edge="1">
                    <mxGeometry relative="1" as="geometry">
                        <mxPoint x="1250" y="800" as="targetPoint"/>
                        <Array as="points">
                            <mxPoint x="1250" y="940"/>
                        </Array>
                    </mxGeometry>
                </mxCell>
                <mxCell id="H-VeI4tqfpoL3jdRFG1W-6" style="edgeStyle=orthogonalEdgeStyle;rounded=0;orthogonalLoop=1;jettySize=auto;html=1;entryX=0.84;entryY=0.01;entryDx=0;entryDy=0;entryPerimeter=0;endArrow=classic;endFill=1;" parent="1" source="C-vyLk0tnHw3VtMMgP7b-3" target="4EHw12qrjTxByGc45qhq-31" edge="1">
                    <mxGeometry relative="1" as="geometry"/>
                </mxCell>
                <mxCell id="H-VeI4tqfpoL3jdRFG1W-7" style="edgeStyle=orthogonalEdgeStyle;rounded=0;orthogonalLoop=1;jettySize=auto;html=1;entryX=0.5;entryY=0;entryDx=0;entryDy=0;endArrow=classic;endFill=1;" parent="1" source="C-vyLk0tnHw3VtMMgP7b-20" target="4EHw12qrjTxByGc45qhq-31" edge="1">
                    <mxGeometry relative="1" as="geometry"/>
                </mxCell>
                <mxCell id="H-VeI4tqfpoL3jdRFG1W-10" style="edgeStyle=orthogonalEdgeStyle;rounded=0;orthogonalLoop=1;jettySize=auto;html=1;endArrow=classic;endFill=1;entryX=0.112;entryY=-0.01;entryDx=0;entryDy=0;entryPerimeter=0;" parent="1" source="C-vyLk0tnHw3VtMMgP7b-20" target="4EHw12qrjTxByGc45qhq-46" edge="1">
                    <mxGeometry relative="1" as="geometry">
                        <mxPoint x="20" y="850" as="targetPoint"/>
                    </mxGeometry>
                </mxCell>
                <mxCell id="4EHw12qrjTxByGc45qhq-68" value="AzureADApplicationsRoles" style="shape=table;startSize=30;container=1;collapsible=1;childLayout=tableLayout;fixedRows=1;rowLines=0;fontStyle=1;align=center;resizeLast=1;" parent="1" vertex="1">
                    <mxGeometry x="290" y="960" width="250" height="100" as="geometry"/>
                </mxCell>
                <mxCell id="4EHw12qrjTxByGc45qhq-69" value="" style="shape=partialRectangle;collapsible=0;dropTarget=0;pointerEvents=0;fillColor=none;points=[[0,0.5],[1,0.5]];portConstraint=eastwest;top=0;left=0;right=0;bottom=1;" parent="4EHw12qrjTxByGc45qhq-68" vertex="1">
                    <mxGeometry y="30" width="250" height="30" as="geometry"/>
                </mxCell>
                <mxCell id="4EHw12qrjTxByGc45qhq-70" value="PK" style="shape=partialRectangle;overflow=hidden;connectable=0;fillColor=none;top=0;left=0;bottom=0;right=0;fontStyle=1;" parent="4EHw12qrjTxByGc45qhq-69" vertex="1">
                    <mxGeometry width="30" height="30" as="geometry"/>
                </mxCell>
                <mxCell id="4EHw12qrjTxByGc45qhq-71" value="" style="shape=partialRectangle;overflow=hidden;connectable=0;fillColor=none;top=0;left=0;bottom=0;right=0;align=left;spacingLeft=6;fontStyle=5;" parent="4EHw12qrjTxByGc45qhq-69" vertex="1">
                    <mxGeometry x="30" width="220" height="30" as="geometry"/>
                </mxCell>
                <mxCell id="4EHw12qrjTxByGc45qhq-72" value="" style="shape=partialRectangle;collapsible=0;dropTarget=0;pointerEvents=0;fillColor=none;points=[[0,0.5],[1,0.5]];portConstraint=eastwest;top=0;left=0;right=0;bottom=0;" parent="4EHw12qrjTxByGc45qhq-68" vertex="1">
                    <mxGeometry y="60" width="250" height="30" as="geometry"/>
                </mxCell>
                <mxCell id="4EHw12qrjTxByGc45qhq-73" value="" style="shape=partialRectangle;overflow=hidden;connectable=0;fillColor=none;top=0;left=0;bottom=0;right=0;" parent="4EHw12qrjTxByGc45qhq-72" vertex="1">
                    <mxGeometry width="30" height="30" as="geometry"/>
                </mxCell>
                <mxCell id="4EHw12qrjTxByGc45qhq-74" value="" style="shape=partialRectangle;overflow=hidden;connectable=0;fillColor=none;top=0;left=0;bottom=0;right=0;align=left;spacingLeft=6;" parent="4EHw12qrjTxByGc45qhq-72" vertex="1">
                    <mxGeometry x="30" width="220" height="30" as="geometry"/>
                </mxCell>
                <mxCell id="4EHw12qrjTxByGc45qhq-76" value="AzureADProductLicenses" style="shape=table;startSize=30;container=1;collapsible=1;childLayout=tableLayout;fixedRows=1;rowLines=0;fontStyle=1;align=center;resizeLast=1;" parent="1" vertex="1">
                    <mxGeometry x="920" y="50" width="250" height="100" as="geometry"/>
                </mxCell>
                <mxCell id="4EHw12qrjTxByGc45qhq-77" value="" style="shape=partialRectangle;collapsible=0;dropTarget=0;pointerEvents=0;fillColor=none;points=[[0,0.5],[1,0.5]];portConstraint=eastwest;top=0;left=0;right=0;bottom=1;" parent="4EHw12qrjTxByGc45qhq-76" vertex="1">
                    <mxGeometry y="30" width="250" height="30" as="geometry"/>
                </mxCell>
                <mxCell id="4EHw12qrjTxByGc45qhq-78" value="PK" style="shape=partialRectangle;overflow=hidden;connectable=0;fillColor=none;top=0;left=0;bottom=0;right=0;fontStyle=1;" parent="4EHw12qrjTxByGc45qhq-77" vertex="1">
                    <mxGeometry width="30" height="30" as="geometry"/>
                </mxCell>
                <mxCell id="4EHw12qrjTxByGc45qhq-79" value="Users, Groups" style="shape=partialRectangle;overflow=hidden;connectable=0;fillColor=none;top=0;left=0;bottom=0;right=0;align=left;spacingLeft=6;fontStyle=5;" parent="4EHw12qrjTxByGc45qhq-77" vertex="1">
                    <mxGeometry x="30" width="220" height="30" as="geometry"/>
                </mxCell>
                <mxCell id="4EHw12qrjTxByGc45qhq-80" value="" style="shape=partialRectangle;collapsible=0;dropTarget=0;pointerEvents=0;fillColor=none;points=[[0,0.5],[1,0.5]];portConstraint=eastwest;top=0;left=0;right=0;bottom=0;" parent="4EHw12qrjTxByGc45qhq-76" vertex="1">
                    <mxGeometry y="60" width="250" height="30" as="geometry"/>
                </mxCell>
                <mxCell id="4EHw12qrjTxByGc45qhq-81" value="" style="shape=partialRectangle;overflow=hidden;connectable=0;fillColor=none;top=0;left=0;bottom=0;right=0;" parent="4EHw12qrjTxByGc45qhq-80" vertex="1">
                    <mxGeometry width="30" height="30" as="geometry"/>
                </mxCell>
                <mxCell id="4EHw12qrjTxByGc45qhq-82" value="" style="shape=partialRectangle;overflow=hidden;connectable=0;fillColor=none;top=0;left=0;bottom=0;right=0;align=left;spacingLeft=6;" parent="4EHw12qrjTxByGc45qhq-80" vertex="1">
                    <mxGeometry x="30" width="220" height="30" as="geometry"/>
                </mxCell>
                <mxCell id="4EHw12qrjTxByGc45qhq-84" value="AzureADIdentityProviders" style="shape=table;startSize=30;container=1;collapsible=1;childLayout=tableLayout;fixedRows=1;rowLines=0;fontStyle=1;align=center;resizeLast=1;" parent="1" vertex="1">
                    <mxGeometry x="1290" y="97.5" width="250" height="100" as="geometry"/>
                </mxCell>
                <mxCell id="4EHw12qrjTxByGc45qhq-85" value="" style="shape=partialRectangle;collapsible=0;dropTarget=0;pointerEvents=0;fillColor=none;points=[[0,0.5],[1,0.5]];portConstraint=eastwest;top=0;left=0;right=0;bottom=1;" parent="4EHw12qrjTxByGc45qhq-84" vertex="1">
                    <mxGeometry y="30" width="250" height="30" as="geometry"/>
                </mxCell>
                <mxCell id="4EHw12qrjTxByGc45qhq-86" value="PK" style="shape=partialRectangle;overflow=hidden;connectable=0;fillColor=none;top=0;left=0;bottom=0;right=0;fontStyle=1;" parent="4EHw12qrjTxByGc45qhq-85" vertex="1">
                    <mxGeometry width="30" height="30" as="geometry"/>
                </mxCell>
                <mxCell id="4EHw12qrjTxByGc45qhq-87" value="" style="shape=partialRectangle;overflow=hidden;connectable=0;fillColor=none;top=0;left=0;bottom=0;right=0;align=left;spacingLeft=6;fontStyle=5;" parent="4EHw12qrjTxByGc45qhq-85" vertex="1">
                    <mxGeometry x="30" width="220" height="30" as="geometry"/>
                </mxCell>
                <mxCell id="4EHw12qrjTxByGc45qhq-88" value="" style="shape=partialRectangle;collapsible=0;dropTarget=0;pointerEvents=0;fillColor=none;points=[[0,0.5],[1,0.5]];portConstraint=eastwest;top=0;left=0;right=0;bottom=0;" parent="4EHw12qrjTxByGc45qhq-84" vertex="1">
                    <mxGeometry y="60" width="250" height="30" as="geometry"/>
                </mxCell>
                <mxCell id="4EHw12qrjTxByGc45qhq-89" value="" style="shape=partialRectangle;overflow=hidden;connectable=0;fillColor=none;top=0;left=0;bottom=0;right=0;" parent="4EHw12qrjTxByGc45qhq-88" vertex="1">
                    <mxGeometry width="30" height="30" as="geometry"/>
                </mxCell>
                <mxCell id="4EHw12qrjTxByGc45qhq-90" value="" style="shape=partialRectangle;overflow=hidden;connectable=0;fillColor=none;top=0;left=0;bottom=0;right=0;align=left;spacingLeft=6;" parent="4EHw12qrjTxByGc45qhq-88" vertex="1">
                    <mxGeometry x="30" width="220" height="30" as="geometry"/>
                </mxCell>
                <mxCell id="4EHw12qrjTxByGc45qhq-91" style="edgeStyle=none;rounded=0;orthogonalLoop=1;jettySize=auto;html=1;exitX=0.5;exitY=0;exitDx=0;exitDy=0;endArrow=classic;endFill=1;" parent="1" source="4EHw12qrjTxByGc45qhq-84" target="4EHw12qrjTxByGc45qhq-84" edge="1">
                    <mxGeometry relative="1" as="geometry"/>
                </mxCell>
                <mxCell id="4EHw12qrjTxByGc45qhq-92" value="AzureADAccessPackage" style="shape=table;startSize=30;container=1;collapsible=1;childLayout=tableLayout;fixedRows=1;rowLines=0;fontStyle=1;align=center;resizeLast=1;" parent="1" vertex="1">
                    <mxGeometry x="1400" y="310" width="250" height="100" as="geometry"/>
                </mxCell>
                <mxCell id="4EHw12qrjTxByGc45qhq-93" value="" style="shape=partialRectangle;collapsible=0;dropTarget=0;pointerEvents=0;fillColor=none;points=[[0,0.5],[1,0.5]];portConstraint=eastwest;top=0;left=0;right=0;bottom=1;" parent="4EHw12qrjTxByGc45qhq-92" vertex="1">
                    <mxGeometry y="30" width="250" height="30" as="geometry"/>
                </mxCell>
                <mxCell id="4EHw12qrjTxByGc45qhq-94" value="PK" style="shape=partialRectangle;overflow=hidden;connectable=0;fillColor=none;top=0;left=0;bottom=0;right=0;fontStyle=1;" parent="4EHw12qrjTxByGc45qhq-93" vertex="1">
                    <mxGeometry width="30" height="30" as="geometry"/>
                </mxCell>
                <mxCell id="4EHw12qrjTxByGc45qhq-95" value="" style="shape=partialRectangle;overflow=hidden;connectable=0;fillColor=none;top=0;left=0;bottom=0;right=0;align=left;spacingLeft=6;fontStyle=5;" parent="4EHw12qrjTxByGc45qhq-93" vertex="1">
                    <mxGeometry x="30" width="220" height="30" as="geometry"/>
                </mxCell>
                <mxCell id="4EHw12qrjTxByGc45qhq-96" value="" style="shape=partialRectangle;collapsible=0;dropTarget=0;pointerEvents=0;fillColor=none;points=[[0,0.5],[1,0.5]];portConstraint=eastwest;top=0;left=0;right=0;bottom=0;" parent="4EHw12qrjTxByGc45qhq-92" vertex="1">
                    <mxGeometry y="60" width="250" height="30" as="geometry"/>
                </mxCell>
                <mxCell id="4EHw12qrjTxByGc45qhq-97" value="" style="shape=partialRectangle;overflow=hidden;connectable=0;fillColor=none;top=0;left=0;bottom=0;right=0;" parent="4EHw12qrjTxByGc45qhq-96" vertex="1">
                    <mxGeometry width="30" height="30" as="geometry"/>
                </mxCell>
                <mxCell id="4EHw12qrjTxByGc45qhq-98" value="" style="shape=partialRectangle;overflow=hidden;connectable=0;fillColor=none;top=0;left=0;bottom=0;right=0;align=left;spacingLeft=6;" parent="4EHw12qrjTxByGc45qhq-96" vertex="1">
                    <mxGeometry x="30" width="220" height="30" as="geometry"/>
                </mxCell>
                <mxCell id="4EHw12qrjTxByGc45qhq-99" style="edgeStyle=none;rounded=0;orthogonalLoop=1;jettySize=auto;html=1;endArrow=classic;endFill=1;exitX=0.996;exitY=0.9;exitDx=0;exitDy=0;exitPerimeter=0;" parent="1" source="4EHw12qrjTxByGc45qhq-58" target="4EHw12qrjTxByGc45qhq-92" edge="1">
                    <mxGeometry relative="1" as="geometry">
                        <mxPoint x="1525" y="980" as="sourcePoint"/>
                        <Array as="points">
                            <mxPoint x="1530" y="967"/>
                        </Array>
                    </mxGeometry>
                </mxCell>
                <mxCell id="4EHw12qrjTxByGc45qhq-100" style="edgeStyle=none;rounded=0;orthogonalLoop=1;jettySize=auto;html=1;endArrow=classic;endFill=1;entryX=0.396;entryY=-0.01;entryDx=0;entryDy=0;entryPerimeter=0;exitX=1.008;exitY=0.133;exitDx=0;exitDy=0;exitPerimeter=0;" parent="1" source="C-vyLk0tnHw3VtMMgP7b-6" target="4EHw12qrjTxByGc45qhq-92" edge="1">
                    <mxGeometry relative="1" as="geometry">
                        <mxPoint x="1510" y="245" as="targetPoint"/>
                        <Array as="points">
                            <mxPoint x="1499" y="270"/>
                        </Array>
                    </mxGeometry>
                </mxCell>
                <mxCell id="4EHw12qrjTxByGc45qhq-102" value="AzureADAccessPackageResourceRoles" style="shape=table;startSize=30;container=1;collapsible=1;childLayout=tableLayout;fixedRows=1;rowLines=0;fontStyle=0;align=center;resizeLast=1;" parent="1" vertex="1">
                    <mxGeometry x="1700" y="500" width="250" height="100" as="geometry"/>
                </mxCell>
                <mxCell id="4EHw12qrjTxByGc45qhq-103" value="" style="shape=partialRectangle;collapsible=0;dropTarget=0;pointerEvents=0;fillColor=none;points=[[0,0.5],[1,0.5]];portConstraint=eastwest;top=0;left=0;right=0;bottom=1;" parent="4EHw12qrjTxByGc45qhq-102" vertex="1">
                    <mxGeometry y="30" width="250" height="30" as="geometry"/>
                </mxCell>
                <mxCell id="4EHw12qrjTxByGc45qhq-104" value="PK" style="shape=partialRectangle;overflow=hidden;connectable=0;fillColor=none;top=0;left=0;bottom=0;right=0;fontStyle=1;" parent="4EHw12qrjTxByGc45qhq-103" vertex="1">
                    <mxGeometry width="30" height="30" as="geometry"/>
                </mxCell>
                <mxCell id="4EHw12qrjTxByGc45qhq-105" value="" style="shape=partialRectangle;overflow=hidden;connectable=0;fillColor=none;top=0;left=0;bottom=0;right=0;align=left;spacingLeft=6;fontStyle=5;" parent="4EHw12qrjTxByGc45qhq-103" vertex="1">
                    <mxGeometry x="30" width="220" height="30" as="geometry"/>
                </mxCell>
                <mxCell id="4EHw12qrjTxByGc45qhq-106" value="" style="shape=partialRectangle;collapsible=0;dropTarget=0;pointerEvents=0;fillColor=none;points=[[0,0.5],[1,0.5]];portConstraint=eastwest;top=0;left=0;right=0;bottom=0;" parent="4EHw12qrjTxByGc45qhq-102" vertex="1">
                    <mxGeometry y="60" width="250" height="30" as="geometry"/>
                </mxCell>
                <mxCell id="4EHw12qrjTxByGc45qhq-107" value="" style="shape=partialRectangle;overflow=hidden;connectable=0;fillColor=none;top=0;left=0;bottom=0;right=0;" parent="4EHw12qrjTxByGc45qhq-106" vertex="1">
                    <mxGeometry width="30" height="30" as="geometry"/>
                </mxCell>
                <mxCell id="4EHw12qrjTxByGc45qhq-108" value="" style="shape=partialRectangle;overflow=hidden;connectable=0;fillColor=none;top=0;left=0;bottom=0;right=0;align=left;spacingLeft=6;" parent="4EHw12qrjTxByGc45qhq-106" vertex="1">
                    <mxGeometry x="30" width="220" height="30" as="geometry"/>
                </mxCell>
                <mxCell id="4EHw12qrjTxByGc45qhq-109" style="edgeStyle=none;rounded=0;orthogonalLoop=1;jettySize=auto;html=1;endArrow=classic;endFill=1;exitX=0.992;exitY=0.967;exitDx=0;exitDy=0;exitPerimeter=0;" parent="1" source="4EHw12qrjTxByGc45qhq-96" target="4EHw12qrjTxByGc45qhq-102" edge="1">
                    <mxGeometry relative="1" as="geometry">
                        <Array as="points">
                            <mxPoint x="1825" y="400"/>
                        </Array>
                    </mxGeometry>
                </mxCell>
                <mxCell id="4EHw12qrjTxByGc45qhq-136" style="edgeStyle=none;rounded=0;orthogonalLoop=1;jettySize=auto;html=1;entryX=1;entryY=0.5;entryDx=0;entryDy=0;endArrow=classic;endFill=1;" parent="1" source="4EHw12qrjTxByGc45qhq-111" target="4EHw12qrjTxByGc45qhq-96" edge="1">
                    <mxGeometry relative="1" as="geometry">
                        <Array as="points">
                            <mxPoint x="2158" y="390"/>
                        </Array>
                    </mxGeometry>
                </mxCell>
                <mxCell id="4EHw12qrjTxByGc45qhq-111" value="AzureADAccessPackageAssignmentPolicies" style="shape=table;startSize=30;container=1;collapsible=1;childLayout=tableLayout;fixedRows=1;rowLines=0;fontStyle=1;align=center;resizeLast=1;" parent="1" vertex="1">
                    <mxGeometry x="2020" y="500" width="275" height="100" as="geometry"/>
                </mxCell>
                <mxCell id="4EHw12qrjTxByGc45qhq-112" value="" style="shape=partialRectangle;collapsible=0;dropTarget=0;pointerEvents=0;fillColor=none;points=[[0,0.5],[1,0.5]];portConstraint=eastwest;top=0;left=0;right=0;bottom=1;" parent="4EHw12qrjTxByGc45qhq-111" vertex="1">
                    <mxGeometry y="30" width="275" height="30" as="geometry"/>
                </mxCell>
                <mxCell id="4EHw12qrjTxByGc45qhq-113" value="PK" style="shape=partialRectangle;overflow=hidden;connectable=0;fillColor=none;top=0;left=0;bottom=0;right=0;fontStyle=1;" parent="4EHw12qrjTxByGc45qhq-112" vertex="1">
                    <mxGeometry width="30" height="30" as="geometry"/>
                </mxCell>
                <mxCell id="4EHw12qrjTxByGc45qhq-114" value="" style="shape=partialRectangle;overflow=hidden;connectable=0;fillColor=none;top=0;left=0;bottom=0;right=0;align=left;spacingLeft=6;fontStyle=5;" parent="4EHw12qrjTxByGc45qhq-112" vertex="1">
                    <mxGeometry x="30" width="245" height="30" as="geometry"/>
                </mxCell>
                <mxCell id="4EHw12qrjTxByGc45qhq-115" value="" style="shape=partialRectangle;collapsible=0;dropTarget=0;pointerEvents=0;fillColor=none;points=[[0,0.5],[1,0.5]];portConstraint=eastwest;top=0;left=0;right=0;bottom=0;" parent="4EHw12qrjTxByGc45qhq-111" vertex="1">
                    <mxGeometry y="60" width="275" height="30" as="geometry"/>
                </mxCell>
                <mxCell id="4EHw12qrjTxByGc45qhq-116" value="" style="shape=partialRectangle;overflow=hidden;connectable=0;fillColor=none;top=0;left=0;bottom=0;right=0;" parent="4EHw12qrjTxByGc45qhq-115" vertex="1">
                    <mxGeometry width="30" height="30" as="geometry"/>
                </mxCell>
                <mxCell id="4EHw12qrjTxByGc45qhq-117" value="" style="shape=partialRectangle;overflow=hidden;connectable=0;fillColor=none;top=0;left=0;bottom=0;right=0;align=left;spacingLeft=6;" parent="4EHw12qrjTxByGc45qhq-115" vertex="1">
                    <mxGeometry x="30" width="245" height="30" as="geometry"/>
                </mxCell>
                <mxCell id="4EHw12qrjTxByGc45qhq-137" style="edgeStyle=none;rounded=0;orthogonalLoop=1;jettySize=auto;html=1;entryX=1.004;entryY=0.1;entryDx=0;entryDy=0;endArrow=classic;endFill=1;entryPerimeter=0;" parent="1" source="4EHw12qrjTxByGc45qhq-119" target="4EHw12qrjTxByGc45qhq-96" edge="1">
                    <mxGeometry relative="1" as="geometry">
                        <Array as="points">
                            <mxPoint x="2508" y="380"/>
                            <mxPoint x="2340" y="380"/>
                        </Array>
                    </mxGeometry>
                </mxCell>
                <mxCell id="4EHw12qrjTxByGc45qhq-119" value="AzureADAccessPackageAssignments" style="shape=table;startSize=30;container=1;collapsible=1;childLayout=tableLayout;fixedRows=1;rowLines=0;fontStyle=1;align=center;resizeLast=1;" parent="1" vertex="1">
                    <mxGeometry x="2370" y="500" width="275" height="100" as="geometry"/>
                </mxCell>
                <mxCell id="4EHw12qrjTxByGc45qhq-120" value="" style="shape=partialRectangle;collapsible=0;dropTarget=0;pointerEvents=0;fillColor=none;points=[[0,0.5],[1,0.5]];portConstraint=eastwest;top=0;left=0;right=0;bottom=1;" parent="4EHw12qrjTxByGc45qhq-119" vertex="1">
                    <mxGeometry y="30" width="275" height="30" as="geometry"/>
                </mxCell>
                <mxCell id="4EHw12qrjTxByGc45qhq-121" value="PK" style="shape=partialRectangle;overflow=hidden;connectable=0;fillColor=none;top=0;left=0;bottom=0;right=0;fontStyle=1;" parent="4EHw12qrjTxByGc45qhq-120" vertex="1">
                    <mxGeometry width="30" height="30" as="geometry"/>
                </mxCell>
                <mxCell id="4EHw12qrjTxByGc45qhq-122" value="" style="shape=partialRectangle;overflow=hidden;connectable=0;fillColor=none;top=0;left=0;bottom=0;right=0;align=left;spacingLeft=6;fontStyle=5;" parent="4EHw12qrjTxByGc45qhq-120" vertex="1">
                    <mxGeometry x="30" width="245" height="30" as="geometry"/>
                </mxCell>
                <mxCell id="4EHw12qrjTxByGc45qhq-123" value="" style="shape=partialRectangle;collapsible=0;dropTarget=0;pointerEvents=0;fillColor=none;points=[[0,0.5],[1,0.5]];portConstraint=eastwest;top=0;left=0;right=0;bottom=0;" parent="4EHw12qrjTxByGc45qhq-119" vertex="1">
                    <mxGeometry y="60" width="275" height="30" as="geometry"/>
                </mxCell>
                <mxCell id="4EHw12qrjTxByGc45qhq-124" value="" style="shape=partialRectangle;overflow=hidden;connectable=0;fillColor=none;top=0;left=0;bottom=0;right=0;" parent="4EHw12qrjTxByGc45qhq-123" vertex="1">
                    <mxGeometry width="30" height="30" as="geometry"/>
                </mxCell>
                <mxCell id="4EHw12qrjTxByGc45qhq-125" value="" style="shape=partialRectangle;overflow=hidden;connectable=0;fillColor=none;top=0;left=0;bottom=0;right=0;align=left;spacingLeft=6;" parent="4EHw12qrjTxByGc45qhq-123" vertex="1">
                    <mxGeometry x="30" width="245" height="30" as="geometry"/>
                </mxCell>
                <mxCell id="4EHw12qrjTxByGc45qhq-138" style="edgeStyle=none;rounded=0;orthogonalLoop=1;jettySize=auto;html=1;endArrow=classic;endFill=1;" parent="1" source="4EHw12qrjTxByGc45qhq-127" edge="1">
                    <mxGeometry relative="1" as="geometry">
                        <mxPoint x="1652" y="355" as="targetPoint"/>
                        <Array as="points">
                            <mxPoint x="2830" y="360"/>
                            <mxPoint x="2090" y="360"/>
                        </Array>
                    </mxGeometry>
                </mxCell>
                <mxCell id="4EHw12qrjTxByGc45qhq-127" value="AzureADAccessPackageAssignmentsRequests" style="shape=table;startSize=30;container=1;collapsible=1;childLayout=tableLayout;fixedRows=1;rowLines=0;fontStyle=1;align=center;resizeLast=1;" parent="1" vertex="1">
                    <mxGeometry x="2680" y="500" width="300" height="100" as="geometry"/>
                </mxCell>
                <mxCell id="4EHw12qrjTxByGc45qhq-128" value="" style="shape=partialRectangle;collapsible=0;dropTarget=0;pointerEvents=0;fillColor=none;points=[[0,0.5],[1,0.5]];portConstraint=eastwest;top=0;left=0;right=0;bottom=1;" parent="4EHw12qrjTxByGc45qhq-127" vertex="1">
                    <mxGeometry y="30" width="300" height="30" as="geometry"/>
                </mxCell>
                <mxCell id="4EHw12qrjTxByGc45qhq-129" value="PK" style="shape=partialRectangle;overflow=hidden;connectable=0;fillColor=none;top=0;left=0;bottom=0;right=0;fontStyle=1;" parent="4EHw12qrjTxByGc45qhq-128" vertex="1">
                    <mxGeometry width="30" height="30" as="geometry"/>
                </mxCell>
                <mxCell id="4EHw12qrjTxByGc45qhq-130" value="" style="shape=partialRectangle;overflow=hidden;connectable=0;fillColor=none;top=0;left=0;bottom=0;right=0;align=left;spacingLeft=6;fontStyle=5;" parent="4EHw12qrjTxByGc45qhq-128" vertex="1">
                    <mxGeometry x="30" width="270" height="30" as="geometry"/>
                </mxCell>
                <mxCell id="4EHw12qrjTxByGc45qhq-131" value="" style="shape=partialRectangle;collapsible=0;dropTarget=0;pointerEvents=0;fillColor=none;points=[[0,0.5],[1,0.5]];portConstraint=eastwest;top=0;left=0;right=0;bottom=0;" parent="4EHw12qrjTxByGc45qhq-127" vertex="1">
                    <mxGeometry y="60" width="300" height="30" as="geometry"/>
                </mxCell>
                <mxCell id="4EHw12qrjTxByGc45qhq-132" value="" style="shape=partialRectangle;overflow=hidden;connectable=0;fillColor=none;top=0;left=0;bottom=0;right=0;" parent="4EHw12qrjTxByGc45qhq-131" vertex="1">
                    <mxGeometry width="30" height="30" as="geometry"/>
                </mxCell>
                <mxCell id="4EHw12qrjTxByGc45qhq-133" value="" style="shape=partialRectangle;overflow=hidden;connectable=0;fillColor=none;top=0;left=0;bottom=0;right=0;align=left;spacingLeft=6;" parent="4EHw12qrjTxByGc45qhq-131" vertex="1">
                    <mxGeometry x="30" width="270" height="30" as="geometry"/>
                </mxCell>
                <mxCell id="4EHw12qrjTxByGc45qhq-146" style="edgeStyle=none;rounded=0;orthogonalLoop=1;jettySize=auto;html=1;endArrow=classic;endFill=1;exitX=0;exitY=-0.167;exitDx=0;exitDy=0;exitPerimeter=0;" parent="1" source="4EHw12qrjTxByGc45qhq-143" edge="1">
                    <mxGeometry relative="1" as="geometry">
                        <mxPoint x="1640" y="306" as="targetPoint"/>
                        <Array as="points">
                            <mxPoint x="1640" y="215"/>
                            <mxPoint x="1640" y="270"/>
                        </Array>
                    </mxGeometry>
                </mxCell>
                <mxCell id="4EHw12qrjTxByGc45qhq-139" value="AzureADAccessPackageAssignmentsRequests" style="shape=table;startSize=30;container=1;collapsible=1;childLayout=tableLayout;fixedRows=1;rowLines=0;fontStyle=1;align=center;resizeLast=1;" parent="1" vertex="1">
                    <mxGeometry x="1700" y="160" width="300" height="100" as="geometry"/>
                </mxCell>
                <mxCell id="4EHw12qrjTxByGc45qhq-140" value="" style="shape=partialRectangle;collapsible=0;dropTarget=0;pointerEvents=0;fillColor=none;points=[[0,0.5],[1,0.5]];portConstraint=eastwest;top=0;left=0;right=0;bottom=1;" parent="4EHw12qrjTxByGc45qhq-139" vertex="1">
                    <mxGeometry y="30" width="300" height="30" as="geometry"/>
                </mxCell>
                <mxCell id="4EHw12qrjTxByGc45qhq-141" value="PK" style="shape=partialRectangle;overflow=hidden;connectable=0;fillColor=none;top=0;left=0;bottom=0;right=0;fontStyle=1;" parent="4EHw12qrjTxByGc45qhq-140" vertex="1">
                    <mxGeometry width="30" height="30" as="geometry"/>
                </mxCell>
                <mxCell id="4EHw12qrjTxByGc45qhq-142" value="" style="shape=partialRectangle;overflow=hidden;connectable=0;fillColor=none;top=0;left=0;bottom=0;right=0;align=left;spacingLeft=6;fontStyle=5;" parent="4EHw12qrjTxByGc45qhq-140" vertex="1">
                    <mxGeometry x="30" width="270" height="30" as="geometry"/>
                </mxCell>
                <mxCell id="4EHw12qrjTxByGc45qhq-143" value="" style="shape=partialRectangle;collapsible=0;dropTarget=0;pointerEvents=0;fillColor=none;points=[[0,0.5],[1,0.5]];portConstraint=eastwest;top=0;left=0;right=0;bottom=0;" parent="4EHw12qrjTxByGc45qhq-139" vertex="1">
                    <mxGeometry y="60" width="300" height="30" as="geometry"/>
                </mxCell>
                <mxCell id="4EHw12qrjTxByGc45qhq-144" value="" style="shape=partialRectangle;overflow=hidden;connectable=0;fillColor=none;top=0;left=0;bottom=0;right=0;" parent="4EHw12qrjTxByGc45qhq-143" vertex="1">
                    <mxGeometry width="30" height="30" as="geometry"/>
                </mxCell>
                <mxCell id="4EHw12qrjTxByGc45qhq-145" value="" style="shape=partialRectangle;overflow=hidden;connectable=0;fillColor=none;top=0;left=0;bottom=0;right=0;align=left;spacingLeft=6;" parent="4EHw12qrjTxByGc45qhq-143" vertex="1">
                    <mxGeometry x="30" width="270" height="30" as="geometry"/>
                </mxCell>
                <mxCell id="4EHw12qrjTxByGc45qhq-154" style="edgeStyle=none;rounded=0;orthogonalLoop=1;jettySize=auto;html=1;entryX=0.844;entryY=0.02;entryDx=0;entryDy=0;entryPerimeter=0;endArrow=classic;endFill=1;exitX=0.457;exitY=0.01;exitDx=0;exitDy=0;exitPerimeter=0;" parent="1" source="4EHw12qrjTxByGc45qhq-147" target="4EHw12qrjTxByGc45qhq-92" edge="1">
                    <mxGeometry relative="1" as="geometry">
                        <Array as="points">
                            <mxPoint x="2187" y="120"/>
                            <mxPoint x="1610" y="120"/>
                        </Array>
                    </mxGeometry>
                </mxCell>
                <mxCell id="4EHw12qrjTxByGc45qhq-147" value="AzureADAccessPackageCatalog" style="shape=table;startSize=30;container=1;collapsible=1;childLayout=tableLayout;fixedRows=1;rowLines=0;fontStyle=1;align=center;resizeLast=1;" parent="1" vertex="1">
                    <mxGeometry x="2050" y="160" width="300" height="100" as="geometry"/>
                </mxCell>
                <mxCell id="4EHw12qrjTxByGc45qhq-148" value="" style="shape=partialRectangle;collapsible=0;dropTarget=0;pointerEvents=0;fillColor=none;points=[[0,0.5],[1,0.5]];portConstraint=eastwest;top=0;left=0;right=0;bottom=1;" parent="4EHw12qrjTxByGc45qhq-147" vertex="1">
                    <mxGeometry y="30" width="300" height="30" as="geometry"/>
                </mxCell>
                <mxCell id="4EHw12qrjTxByGc45qhq-149" value="PK" style="shape=partialRectangle;overflow=hidden;connectable=0;fillColor=none;top=0;left=0;bottom=0;right=0;fontStyle=1;" parent="4EHw12qrjTxByGc45qhq-148" vertex="1">
                    <mxGeometry width="30" height="30" as="geometry"/>
                </mxCell>
                <mxCell id="4EHw12qrjTxByGc45qhq-150" value="" style="shape=partialRectangle;overflow=hidden;connectable=0;fillColor=none;top=0;left=0;bottom=0;right=0;align=left;spacingLeft=6;fontStyle=5;" parent="4EHw12qrjTxByGc45qhq-148" vertex="1">
                    <mxGeometry x="30" width="270" height="30" as="geometry"/>
                </mxCell>
                <mxCell id="4EHw12qrjTxByGc45qhq-151" value="" style="shape=partialRectangle;collapsible=0;dropTarget=0;pointerEvents=0;fillColor=none;points=[[0,0.5],[1,0.5]];portConstraint=eastwest;top=0;left=0;right=0;bottom=0;" parent="4EHw12qrjTxByGc45qhq-147" vertex="1">
                    <mxGeometry y="60" width="300" height="30" as="geometry"/>
                </mxCell>
                <mxCell id="4EHw12qrjTxByGc45qhq-152" value="" style="shape=partialRectangle;overflow=hidden;connectable=0;fillColor=none;top=0;left=0;bottom=0;right=0;" parent="4EHw12qrjTxByGc45qhq-151" vertex="1">
                    <mxGeometry width="30" height="30" as="geometry"/>
                </mxCell>
                <mxCell id="4EHw12qrjTxByGc45qhq-153" value="" style="shape=partialRectangle;overflow=hidden;connectable=0;fillColor=none;top=0;left=0;bottom=0;right=0;align=left;spacingLeft=6;" parent="4EHw12qrjTxByGc45qhq-151" vertex="1">
                    <mxGeometry x="30" width="270" height="30" as="geometry"/>
                </mxCell>
                <mxCell id="4EHw12qrjTxByGc45qhq-164" style="edgeStyle=none;rounded=0;orthogonalLoop=1;jettySize=auto;html=1;entryX=0.683;entryY=-0.01;entryDx=0;entryDy=0;entryPerimeter=0;endArrow=classic;endFill=1;" parent="1" target="4EHw12qrjTxByGc45qhq-147" edge="1">
                    <mxGeometry relative="1" as="geometry">
                        <mxPoint x="2500" y="159" as="sourcePoint"/>
                        <Array as="points">
                            <mxPoint x="2500" y="120"/>
                            <mxPoint x="2255" y="120"/>
                        </Array>
                    </mxGeometry>
                </mxCell>
                <mxCell id="4EHw12qrjTxByGc45qhq-156" value="AzureADCatalogsRolesAndAdministrators" style="shape=table;startSize=30;container=1;collapsible=1;childLayout=tableLayout;fixedRows=1;rowLines=0;fontStyle=1;align=center;resizeLast=1;" parent="1" vertex="1">
                    <mxGeometry x="2410" y="160" width="300" height="100" as="geometry"/>
                </mxCell>
                <mxCell id="4EHw12qrjTxByGc45qhq-157" value="" style="shape=partialRectangle;collapsible=0;dropTarget=0;pointerEvents=0;fillColor=none;points=[[0,0.5],[1,0.5]];portConstraint=eastwest;top=0;left=0;right=0;bottom=1;" parent="4EHw12qrjTxByGc45qhq-156" vertex="1">
                    <mxGeometry y="30" width="300" height="30" as="geometry"/>
                </mxCell>
                <mxCell id="4EHw12qrjTxByGc45qhq-158" value="PK" style="shape=partialRectangle;overflow=hidden;connectable=0;fillColor=none;top=0;left=0;bottom=0;right=0;fontStyle=1;" parent="4EHw12qrjTxByGc45qhq-157" vertex="1">
                    <mxGeometry width="30" height="30" as="geometry"/>
                </mxCell>
                <mxCell id="4EHw12qrjTxByGc45qhq-159" value="" style="shape=partialRectangle;overflow=hidden;connectable=0;fillColor=none;top=0;left=0;bottom=0;right=0;align=left;spacingLeft=6;fontStyle=5;" parent="4EHw12qrjTxByGc45qhq-157" vertex="1">
                    <mxGeometry x="30" width="270" height="30" as="geometry"/>
                </mxCell>
                <mxCell id="4EHw12qrjTxByGc45qhq-160" value="" style="shape=partialRectangle;collapsible=0;dropTarget=0;pointerEvents=0;fillColor=none;points=[[0,0.5],[1,0.5]];portConstraint=eastwest;top=0;left=0;right=0;bottom=0;" parent="4EHw12qrjTxByGc45qhq-156" vertex="1">
                    <mxGeometry y="60" width="300" height="30" as="geometry"/>
                </mxCell>
                <mxCell id="4EHw12qrjTxByGc45qhq-161" value="" style="shape=partialRectangle;overflow=hidden;connectable=0;fillColor=none;top=0;left=0;bottom=0;right=0;" parent="4EHw12qrjTxByGc45qhq-160" vertex="1">
                    <mxGeometry width="30" height="30" as="geometry"/>
                </mxCell>
                <mxCell id="4EHw12qrjTxByGc45qhq-162" value="" style="shape=partialRectangle;overflow=hidden;connectable=0;fillColor=none;top=0;left=0;bottom=0;right=0;align=left;spacingLeft=6;" parent="4EHw12qrjTxByGc45qhq-160" vertex="1">
                    <mxGeometry x="30" width="270" height="30" as="geometry"/>
                </mxCell>
                <mxCell id="4EHw12qrjTxByGc45qhq-165" value="AzureADConnectedOrganizations" style="shape=table;startSize=30;container=1;collapsible=1;childLayout=tableLayout;fixedRows=1;rowLines=0;fontStyle=1;align=center;resizeLast=1;" parent="1" vertex="1">
                    <mxGeometry x="1570" y="-40" width="250" height="100" as="geometry"/>
                </mxCell>
                <mxCell id="4EHw12qrjTxByGc45qhq-166" value="" style="shape=partialRectangle;collapsible=0;dropTarget=0;pointerEvents=0;fillColor=none;points=[[0,0.5],[1,0.5]];portConstraint=eastwest;top=0;left=0;right=0;bottom=1;" parent="4EHw12qrjTxByGc45qhq-165" vertex="1">
                    <mxGeometry y="30" width="250" height="30" as="geometry"/>
                </mxCell>
                <mxCell id="4EHw12qrjTxByGc45qhq-167" value="PK" style="shape=partialRectangle;overflow=hidden;connectable=0;fillColor=none;top=0;left=0;bottom=0;right=0;fontStyle=1;" parent="4EHw12qrjTxByGc45qhq-166" vertex="1">
                    <mxGeometry width="30" height="30" as="geometry"/>
                </mxCell>
                <mxCell id="4EHw12qrjTxByGc45qhq-168" value="" style="shape=partialRectangle;overflow=hidden;connectable=0;fillColor=none;top=0;left=0;bottom=0;right=0;align=left;spacingLeft=6;fontStyle=5;" parent="4EHw12qrjTxByGc45qhq-166" vertex="1">
                    <mxGeometry x="30" width="220" height="30" as="geometry"/>
                </mxCell>
                <mxCell id="4EHw12qrjTxByGc45qhq-169" value="" style="shape=partialRectangle;collapsible=0;dropTarget=0;pointerEvents=0;fillColor=none;points=[[0,0.5],[1,0.5]];portConstraint=eastwest;top=0;left=0;right=0;bottom=0;" parent="4EHw12qrjTxByGc45qhq-165" vertex="1">
                    <mxGeometry y="60" width="250" height="30" as="geometry"/>
                </mxCell>
                <mxCell id="4EHw12qrjTxByGc45qhq-170" value="" style="shape=partialRectangle;overflow=hidden;connectable=0;fillColor=none;top=0;left=0;bottom=0;right=0;" parent="4EHw12qrjTxByGc45qhq-169" vertex="1">
                    <mxGeometry width="30" height="30" as="geometry"/>
                </mxCell>
                <mxCell id="4EHw12qrjTxByGc45qhq-171" value="" style="shape=partialRectangle;overflow=hidden;connectable=0;fillColor=none;top=0;left=0;bottom=0;right=0;align=left;spacingLeft=6;" parent="4EHw12qrjTxByGc45qhq-169" vertex="1">
                    <mxGeometry x="30" width="220" height="30" as="geometry"/>
                </mxCell>
                <mxCell id="4EHw12qrjTxByGc45qhq-195" style="edgeStyle=none;rounded=0;orthogonalLoop=1;jettySize=auto;html=1;entryX=1.004;entryY=0.067;entryDx=0;entryDy=0;entryPerimeter=0;endArrow=classic;endFill=1;" parent="1" target="4EHw12qrjTxByGc45qhq-189" edge="1">
                    <mxGeometry relative="1" as="geometry">
                        <mxPoint x="2030" y="-40" as="sourcePoint"/>
                        <Array as="points">
                            <mxPoint x="2030" y="-188"/>
                        </Array>
                    </mxGeometry>
                </mxCell>
                <mxCell id="4EHw12qrjTxByGc45qhq-172" value="AzureADAccessReview" style="shape=table;startSize=30;container=1;collapsible=1;childLayout=tableLayout;fixedRows=1;rowLines=0;fontStyle=1;align=center;resizeLast=1;" parent="1" vertex="1">
                    <mxGeometry x="1900" y="-40" width="250" height="100" as="geometry"/>
                </mxCell>
                <mxCell id="4EHw12qrjTxByGc45qhq-173" value="" style="shape=partialRectangle;collapsible=0;dropTarget=0;pointerEvents=0;fillColor=none;points=[[0,0.5],[1,0.5]];portConstraint=eastwest;top=0;left=0;right=0;bottom=1;" parent="4EHw12qrjTxByGc45qhq-172" vertex="1">
                    <mxGeometry y="30" width="250" height="30" as="geometry"/>
                </mxCell>
                <mxCell id="4EHw12qrjTxByGc45qhq-174" value="PK" style="shape=partialRectangle;overflow=hidden;connectable=0;fillColor=none;top=0;left=0;bottom=0;right=0;fontStyle=1;" parent="4EHw12qrjTxByGc45qhq-173" vertex="1">
                    <mxGeometry width="30" height="30" as="geometry"/>
                </mxCell>
                <mxCell id="4EHw12qrjTxByGc45qhq-175" value="" style="shape=partialRectangle;overflow=hidden;connectable=0;fillColor=none;top=0;left=0;bottom=0;right=0;align=left;spacingLeft=6;fontStyle=5;" parent="4EHw12qrjTxByGc45qhq-173" vertex="1">
                    <mxGeometry x="30" width="220" height="30" as="geometry"/>
                </mxCell>
                <mxCell id="4EHw12qrjTxByGc45qhq-176" value="" style="shape=partialRectangle;collapsible=0;dropTarget=0;pointerEvents=0;fillColor=none;points=[[0,0.5],[1,0.5]];portConstraint=eastwest;top=0;left=0;right=0;bottom=0;" parent="4EHw12qrjTxByGc45qhq-172" vertex="1">
                    <mxGeometry y="60" width="250" height="30" as="geometry"/>
                </mxCell>
                <mxCell id="4EHw12qrjTxByGc45qhq-177" value="" style="shape=partialRectangle;overflow=hidden;connectable=0;fillColor=none;top=0;left=0;bottom=0;right=0;" parent="4EHw12qrjTxByGc45qhq-176" vertex="1">
                    <mxGeometry width="30" height="30" as="geometry"/>
                </mxCell>
                <mxCell id="4EHw12qrjTxByGc45qhq-178" value="" style="shape=partialRectangle;overflow=hidden;connectable=0;fillColor=none;top=0;left=0;bottom=0;right=0;align=left;spacingLeft=6;" parent="4EHw12qrjTxByGc45qhq-176" vertex="1">
                    <mxGeometry x="30" width="220" height="30" as="geometry"/>
                </mxCell>
                <mxCell id="4EHw12qrjTxByGc45qhq-186" style="edgeStyle=none;rounded=0;orthogonalLoop=1;jettySize=auto;html=1;entryX=0.592;entryY=-0.02;entryDx=0;entryDy=0;entryPerimeter=0;endArrow=classic;endFill=1;" parent="1" target="4EHw12qrjTxByGc45qhq-172" edge="1">
                    <mxGeometry relative="1" as="geometry">
                        <mxPoint x="2320" y="-42" as="sourcePoint"/>
                        <Array as="points">
                            <mxPoint x="2320" y="-110"/>
                            <mxPoint x="2048" y="-110"/>
                        </Array>
                    </mxGeometry>
                </mxCell>
                <mxCell id="4EHw12qrjTxByGc45qhq-187" style="edgeStyle=none;rounded=0;orthogonalLoop=1;jettySize=auto;html=1;entryX=1;entryY=0.13;entryDx=0;entryDy=0;entryPerimeter=0;endArrow=classic;endFill=1;" parent="1" target="C-vyLk0tnHw3VtMMgP7b-13" edge="1">
                    <mxGeometry relative="1" as="geometry">
                        <mxPoint x="2310" y="60" as="sourcePoint"/>
                        <Array as="points">
                            <mxPoint x="2310" y="80"/>
                            <mxPoint x="1900" y="80"/>
                            <mxPoint x="1240" y="80"/>
                            <mxPoint x="1240" y="340"/>
                            <mxPoint x="710" y="340"/>
                            <mxPoint x="710" y="413"/>
                        </Array>
                    </mxGeometry>
                </mxCell>
                <mxCell id="4EHw12qrjTxByGc45qhq-179" value="AzureADAccessReviewer" style="shape=table;startSize=30;container=1;collapsible=1;childLayout=tableLayout;fixedRows=1;rowLines=0;fontStyle=1;align=center;resizeLast=1;" parent="1" vertex="1">
                    <mxGeometry x="2190" y="-40" width="250" height="100" as="geometry"/>
                </mxCell>
                <mxCell id="4EHw12qrjTxByGc45qhq-180" value="" style="shape=partialRectangle;collapsible=0;dropTarget=0;pointerEvents=0;fillColor=none;points=[[0,0.5],[1,0.5]];portConstraint=eastwest;top=0;left=0;right=0;bottom=1;" parent="4EHw12qrjTxByGc45qhq-179" vertex="1">
                    <mxGeometry y="30" width="250" height="30" as="geometry"/>
                </mxCell>
                <mxCell id="4EHw12qrjTxByGc45qhq-181" value="PK" style="shape=partialRectangle;overflow=hidden;connectable=0;fillColor=none;top=0;left=0;bottom=0;right=0;fontStyle=1;" parent="4EHw12qrjTxByGc45qhq-180" vertex="1">
                    <mxGeometry width="30" height="30" as="geometry"/>
                </mxCell>
                <mxCell id="4EHw12qrjTxByGc45qhq-182" value="" style="shape=partialRectangle;overflow=hidden;connectable=0;fillColor=none;top=0;left=0;bottom=0;right=0;align=left;spacingLeft=6;fontStyle=5;" parent="4EHw12qrjTxByGc45qhq-180" vertex="1">
                    <mxGeometry x="30" width="220" height="30" as="geometry"/>
                </mxCell>
                <mxCell id="4EHw12qrjTxByGc45qhq-183" value="" style="shape=partialRectangle;collapsible=0;dropTarget=0;pointerEvents=0;fillColor=none;points=[[0,0.5],[1,0.5]];portConstraint=eastwest;top=0;left=0;right=0;bottom=0;" parent="4EHw12qrjTxByGc45qhq-179" vertex="1">
                    <mxGeometry y="60" width="250" height="30" as="geometry"/>
                </mxCell>
                <mxCell id="4EHw12qrjTxByGc45qhq-184" value="" style="shape=partialRectangle;overflow=hidden;connectable=0;fillColor=none;top=0;left=0;bottom=0;right=0;" parent="4EHw12qrjTxByGc45qhq-183" vertex="1">
                    <mxGeometry width="30" height="30" as="geometry"/>
                </mxCell>
                <mxCell id="4EHw12qrjTxByGc45qhq-185" value="" style="shape=partialRectangle;overflow=hidden;connectable=0;fillColor=none;top=0;left=0;bottom=0;right=0;align=left;spacingLeft=6;" parent="4EHw12qrjTxByGc45qhq-183" vertex="1">
                    <mxGeometry x="30" width="220" height="30" as="geometry"/>
                </mxCell>
                <mxCell id="4EHw12qrjTxByGc45qhq-188" value="AzureADPrograms" style="shape=table;startSize=30;container=1;collapsible=1;childLayout=tableLayout;fixedRows=1;rowLines=0;fontStyle=1;align=center;resizeLast=1;" parent="1" vertex="1">
                    <mxGeometry x="1430" y="-220" width="250" height="100" as="geometry"/>
                </mxCell>
                <mxCell id="4EHw12qrjTxByGc45qhq-189" value="" style="shape=partialRectangle;collapsible=0;dropTarget=0;pointerEvents=0;fillColor=none;points=[[0,0.5],[1,0.5]];portConstraint=eastwest;top=0;left=0;right=0;bottom=1;" parent="4EHw12qrjTxByGc45qhq-188" vertex="1">
                    <mxGeometry y="30" width="250" height="30" as="geometry"/>
                </mxCell>
                <mxCell id="4EHw12qrjTxByGc45qhq-190" value="PK" style="shape=partialRectangle;overflow=hidden;connectable=0;fillColor=none;top=0;left=0;bottom=0;right=0;fontStyle=1;" parent="4EHw12qrjTxByGc45qhq-189" vertex="1">
                    <mxGeometry width="30" height="30" as="geometry"/>
                </mxCell>
                <mxCell id="4EHw12qrjTxByGc45qhq-191" value="" style="shape=partialRectangle;overflow=hidden;connectable=0;fillColor=none;top=0;left=0;bottom=0;right=0;align=left;spacingLeft=6;fontStyle=5;" parent="4EHw12qrjTxByGc45qhq-189" vertex="1">
                    <mxGeometry x="30" width="220" height="30" as="geometry"/>
                </mxCell>
                <mxCell id="4EHw12qrjTxByGc45qhq-192" value="" style="shape=partialRectangle;collapsible=0;dropTarget=0;pointerEvents=0;fillColor=none;points=[[0,0.5],[1,0.5]];portConstraint=eastwest;top=0;left=0;right=0;bottom=0;" parent="4EHw12qrjTxByGc45qhq-188" vertex="1">
                    <mxGeometry y="60" width="250" height="30" as="geometry"/>
                </mxCell>
                <mxCell id="4EHw12qrjTxByGc45qhq-193" value="" style="shape=partialRectangle;overflow=hidden;connectable=0;fillColor=none;top=0;left=0;bottom=0;right=0;" parent="4EHw12qrjTxByGc45qhq-192" vertex="1">
                    <mxGeometry width="30" height="30" as="geometry"/>
                </mxCell>
                <mxCell id="4EHw12qrjTxByGc45qhq-194" value="" style="shape=partialRectangle;overflow=hidden;connectable=0;fillColor=none;top=0;left=0;bottom=0;right=0;align=left;spacingLeft=6;" parent="4EHw12qrjTxByGc45qhq-192" vertex="1">
                    <mxGeometry x="30" width="220" height="30" as="geometry"/>
                </mxCell>
                <mxCell id="4EHw12qrjTxByGc45qhq-196" value="AzureADBrandingDetails" style="shape=table;startSize=30;container=1;collapsible=1;childLayout=tableLayout;fixedRows=1;rowLines=0;fontStyle=1;align=center;resizeLast=1;" parent="1" vertex="1">
                    <mxGeometry x="1130" y="-380" width="250" height="100" as="geometry"/>
                </mxCell>
                <mxCell id="4EHw12qrjTxByGc45qhq-197" value="" style="shape=partialRectangle;collapsible=0;dropTarget=0;pointerEvents=0;fillColor=none;points=[[0,0.5],[1,0.5]];portConstraint=eastwest;top=0;left=0;right=0;bottom=1;" parent="4EHw12qrjTxByGc45qhq-196" vertex="1">
                    <mxGeometry y="30" width="250" height="30" as="geometry"/>
                </mxCell>
                <mxCell id="4EHw12qrjTxByGc45qhq-198" value="PK" style="shape=partialRectangle;overflow=hidden;connectable=0;fillColor=none;top=0;left=0;bottom=0;right=0;fontStyle=1;" parent="4EHw12qrjTxByGc45qhq-197" vertex="1">
                    <mxGeometry width="30" height="30" as="geometry"/>
                </mxCell>
                <mxCell id="4EHw12qrjTxByGc45qhq-199" value="" style="shape=partialRectangle;overflow=hidden;connectable=0;fillColor=none;top=0;left=0;bottom=0;right=0;align=left;spacingLeft=6;fontStyle=5;" parent="4EHw12qrjTxByGc45qhq-197" vertex="1">
                    <mxGeometry x="30" width="220" height="30" as="geometry"/>
                </mxCell>
                <mxCell id="4EHw12qrjTxByGc45qhq-200" value="" style="shape=partialRectangle;collapsible=0;dropTarget=0;pointerEvents=0;fillColor=none;points=[[0,0.5],[1,0.5]];portConstraint=eastwest;top=0;left=0;right=0;bottom=0;" parent="4EHw12qrjTxByGc45qhq-196" vertex="1">
                    <mxGeometry y="60" width="250" height="30" as="geometry"/>
                </mxCell>
                <mxCell id="4EHw12qrjTxByGc45qhq-201" value="" style="shape=partialRectangle;overflow=hidden;connectable=0;fillColor=none;top=0;left=0;bottom=0;right=0;" parent="4EHw12qrjTxByGc45qhq-200" vertex="1">
                    <mxGeometry width="30" height="30" as="geometry"/>
                </mxCell>
                <mxCell id="4EHw12qrjTxByGc45qhq-202" value="" style="shape=partialRectangle;overflow=hidden;connectable=0;fillColor=none;top=0;left=0;bottom=0;right=0;align=left;spacingLeft=6;" parent="4EHw12qrjTxByGc45qhq-200" vertex="1">
                    <mxGeometry x="30" width="220" height="30" as="geometry"/>
                </mxCell>
                <mxCell id="4EHw12qrjTxByGc45qhq-203" value="AzureADTenantProperties" style="shape=table;startSize=30;container=1;collapsible=1;childLayout=tableLayout;fixedRows=1;rowLines=0;fontStyle=1;align=center;resizeLast=1;" parent="1" vertex="1">
                    <mxGeometry x="1440" y="-380" width="250" height="100" as="geometry"/>
                </mxCell>
                <mxCell id="4EHw12qrjTxByGc45qhq-204" value="" style="shape=partialRectangle;collapsible=0;dropTarget=0;pointerEvents=0;fillColor=none;points=[[0,0.5],[1,0.5]];portConstraint=eastwest;top=0;left=0;right=0;bottom=1;" parent="4EHw12qrjTxByGc45qhq-203" vertex="1">
                    <mxGeometry y="30" width="250" height="30" as="geometry"/>
                </mxCell>
                <mxCell id="4EHw12qrjTxByGc45qhq-205" value="PK" style="shape=partialRectangle;overflow=hidden;connectable=0;fillColor=none;top=0;left=0;bottom=0;right=0;fontStyle=1;" parent="4EHw12qrjTxByGc45qhq-204" vertex="1">
                    <mxGeometry width="30" height="30" as="geometry"/>
                </mxCell>
                <mxCell id="4EHw12qrjTxByGc45qhq-206" value="" style="shape=partialRectangle;overflow=hidden;connectable=0;fillColor=none;top=0;left=0;bottom=0;right=0;align=left;spacingLeft=6;fontStyle=5;" parent="4EHw12qrjTxByGc45qhq-204" vertex="1">
                    <mxGeometry x="30" width="220" height="30" as="geometry"/>
                </mxCell>
                <mxCell id="4EHw12qrjTxByGc45qhq-207" value="" style="shape=partialRectangle;collapsible=0;dropTarget=0;pointerEvents=0;fillColor=none;points=[[0,0.5],[1,0.5]];portConstraint=eastwest;top=0;left=0;right=0;bottom=0;" parent="4EHw12qrjTxByGc45qhq-203" vertex="1">
                    <mxGeometry y="60" width="250" height="30" as="geometry"/>
                </mxCell>
                <mxCell id="4EHw12qrjTxByGc45qhq-208" value="" style="shape=partialRectangle;overflow=hidden;connectable=0;fillColor=none;top=0;left=0;bottom=0;right=0;" parent="4EHw12qrjTxByGc45qhq-207" vertex="1">
                    <mxGeometry width="30" height="30" as="geometry"/>
                </mxCell>
                <mxCell id="4EHw12qrjTxByGc45qhq-209" value="" style="shape=partialRectangle;overflow=hidden;connectable=0;fillColor=none;top=0;left=0;bottom=0;right=0;align=left;spacingLeft=6;" parent="4EHw12qrjTxByGc45qhq-207" vertex="1">
                    <mxGeometry x="30" width="220" height="30" as="geometry"/>
                </mxCell>
                <mxCell id="4EHw12qrjTxByGc45qhq-217" style="edgeStyle=none;rounded=0;orthogonalLoop=1;jettySize=auto;html=1;endArrow=classic;endFill=1;" parent="1" source="4EHw12qrjTxByGc45qhq-210" edge="1">
                    <mxGeometry relative="1" as="geometry">
                        <mxPoint x="400" y="400" as="targetPoint"/>
                        <Array as="points">
                            <mxPoint x="885" y="-50"/>
                            <mxPoint x="510" y="-50"/>
                            <mxPoint x="510" y="160"/>
                            <mxPoint x="400" y="160"/>
                            <mxPoint x="400" y="370"/>
                        </Array>
                    </mxGeometry>
                </mxCell>
                <mxCell id="4EHw12qrjTxByGc45qhq-210" value="AzureADAuthenticationPolicies" style="shape=table;startSize=30;container=1;collapsible=1;childLayout=tableLayout;fixedRows=1;rowLines=0;fontStyle=1;align=center;resizeLast=1;" parent="1" vertex="1">
                    <mxGeometry x="760" y="-320" width="250" height="100" as="geometry"/>
                </mxCell>
                <mxCell id="4EHw12qrjTxByGc45qhq-211" value="" style="shape=partialRectangle;collapsible=0;dropTarget=0;pointerEvents=0;fillColor=none;points=[[0,0.5],[1,0.5]];portConstraint=eastwest;top=0;left=0;right=0;bottom=1;" parent="4EHw12qrjTxByGc45qhq-210" vertex="1">
                    <mxGeometry y="30" width="250" height="30" as="geometry"/>
                </mxCell>
                <mxCell id="4EHw12qrjTxByGc45qhq-212" value="PK" style="shape=partialRectangle;overflow=hidden;connectable=0;fillColor=none;top=0;left=0;bottom=0;right=0;fontStyle=1;" parent="4EHw12qrjTxByGc45qhq-211" vertex="1">
                    <mxGeometry width="30" height="30" as="geometry"/>
                </mxCell>
                <mxCell id="4EHw12qrjTxByGc45qhq-213" value="" style="shape=partialRectangle;overflow=hidden;connectable=0;fillColor=none;top=0;left=0;bottom=0;right=0;align=left;spacingLeft=6;fontStyle=5;" parent="4EHw12qrjTxByGc45qhq-211" vertex="1">
                    <mxGeometry x="30" width="220" height="30" as="geometry"/>
                </mxCell>
                <mxCell id="4EHw12qrjTxByGc45qhq-214" value="" style="shape=partialRectangle;collapsible=0;dropTarget=0;pointerEvents=0;fillColor=none;points=[[0,0.5],[1,0.5]];portConstraint=eastwest;top=0;left=0;right=0;bottom=0;" parent="4EHw12qrjTxByGc45qhq-210" vertex="1">
                    <mxGeometry y="60" width="250" height="30" as="geometry"/>
                </mxCell>
                <mxCell id="4EHw12qrjTxByGc45qhq-215" value="" style="shape=partialRectangle;overflow=hidden;connectable=0;fillColor=none;top=0;left=0;bottom=0;right=0;" parent="4EHw12qrjTxByGc45qhq-214" vertex="1">
                    <mxGeometry width="30" height="30" as="geometry"/>
                </mxCell>
                <mxCell id="4EHw12qrjTxByGc45qhq-216" value="" style="shape=partialRectangle;overflow=hidden;connectable=0;fillColor=none;top=0;left=0;bottom=0;right=0;align=left;spacingLeft=6;" parent="4EHw12qrjTxByGc45qhq-214" vertex="1">
                    <mxGeometry x="30" width="220" height="30" as="geometry"/>
                </mxCell>
                <mxCell id="4EHw12qrjTxByGc45qhq-218" value="AzureADRiskUsers" style="shape=table;startSize=30;container=1;collapsible=1;childLayout=tableLayout;fixedRows=1;rowLines=0;fontStyle=1;align=center;resizeLast=1;" parent="1" vertex="1">
                    <mxGeometry x="380" y="-330" width="250" height="100" as="geometry"/>
                </mxCell>
                <mxCell id="4EHw12qrjTxByGc45qhq-219" value="" style="shape=partialRectangle;collapsible=0;dropTarget=0;pointerEvents=0;fillColor=none;points=[[0,0.5],[1,0.5]];portConstraint=eastwest;top=0;left=0;right=0;bottom=1;" parent="4EHw12qrjTxByGc45qhq-218" vertex="1">
                    <mxGeometry y="30" width="250" height="30" as="geometry"/>
                </mxCell>
                <mxCell id="4EHw12qrjTxByGc45qhq-220" value="PK" style="shape=partialRectangle;overflow=hidden;connectable=0;fillColor=none;top=0;left=0;bottom=0;right=0;fontStyle=1;" parent="4EHw12qrjTxByGc45qhq-219" vertex="1">
                    <mxGeometry width="30" height="30" as="geometry"/>
                </mxCell>
                <mxCell id="4EHw12qrjTxByGc45qhq-221" value="" style="shape=partialRectangle;overflow=hidden;connectable=0;fillColor=none;top=0;left=0;bottom=0;right=0;align=left;spacingLeft=6;fontStyle=5;" parent="4EHw12qrjTxByGc45qhq-219" vertex="1">
                    <mxGeometry x="30" width="220" height="30" as="geometry"/>
                </mxCell>
                <mxCell id="4EHw12qrjTxByGc45qhq-222" value="" style="shape=partialRectangle;collapsible=0;dropTarget=0;pointerEvents=0;fillColor=none;points=[[0,0.5],[1,0.5]];portConstraint=eastwest;top=0;left=0;right=0;bottom=0;" parent="4EHw12qrjTxByGc45qhq-218" vertex="1">
                    <mxGeometry y="60" width="250" height="30" as="geometry"/>
                </mxCell>
                <mxCell id="4EHw12qrjTxByGc45qhq-223" value="" style="shape=partialRectangle;overflow=hidden;connectable=0;fillColor=none;top=0;left=0;bottom=0;right=0;" parent="4EHw12qrjTxByGc45qhq-222" vertex="1">
                    <mxGeometry width="30" height="30" as="geometry"/>
                </mxCell>
                <mxCell id="4EHw12qrjTxByGc45qhq-224" value="" style="shape=partialRectangle;overflow=hidden;connectable=0;fillColor=none;top=0;left=0;bottom=0;right=0;align=left;spacingLeft=6;" parent="4EHw12qrjTxByGc45qhq-222" vertex="1">
                    <mxGeometry x="30" width="220" height="30" as="geometry"/>
                </mxCell>
                <mxCell id="H-VeI4tqfpoL3jdRFG1W-14" style="edgeStyle=orthogonalEdgeStyle;rounded=0;orthogonalLoop=1;jettySize=auto;html=1;entryX=0.096;entryY=-0.03;entryDx=0;entryDy=0;entryPerimeter=0;endArrow=classic;endFill=1;" parent="1" source="4EHw12qrjTxByGc45qhq-219" target="C-vyLk0tnHw3VtMMgP7b-13" edge="1">
                    <mxGeometry relative="1" as="geometry"/>
                </mxCell>
                <mxCell id="4EHw12qrjTxByGc45qhq-233" style="edgeStyle=none;rounded=0;orthogonalLoop=1;jettySize=auto;html=1;entryX=0;entryY=0.25;entryDx=0;entryDy=0;endArrow=classic;endFill=1;" parent="1" target="C-vyLk0tnHw3VtMMgP7b-13" edge="1">
                    <mxGeometry relative="1" as="geometry">
                        <mxPoint x="170" y="-240" as="sourcePoint"/>
                        <Array as="points">
                            <mxPoint x="170" y="425"/>
                        </Array>
                    </mxGeometry>
                </mxCell>
                <mxCell id="4EHw12qrjTxByGc45qhq-234" style="edgeStyle=none;rounded=0;orthogonalLoop=1;jettySize=auto;html=1;endArrow=classic;endFill=1;" parent="1" source="4EHw12qrjTxByGc45qhq-226" edge="1">
                    <mxGeometry relative="1" as="geometry">
                        <Array as="points">
                            <mxPoint x="240" y="-240"/>
                            <mxPoint x="240" y="245"/>
                        </Array>
                        <mxPoint x="480" y="245" as="targetPoint"/>
                    </mxGeometry>
                </mxCell>
                <mxCell id="4EHw12qrjTxByGc45qhq-226" value="AzureADConditionalAccessPolicies" style="shape=table;startSize=20;container=1;collapsible=1;childLayout=tableLayout;fixedRows=1;rowLines=0;fontStyle=1;align=center;resizeLast=1;" parent="1" vertex="1">
                    <mxGeometry x="20" y="-340" width="250" height="100" as="geometry"/>
                </mxCell>
                <mxCell id="4EHw12qrjTxByGc45qhq-227" value="" style="shape=partialRectangle;collapsible=0;dropTarget=0;pointerEvents=0;fillColor=none;points=[[0,0.5],[1,0.5]];portConstraint=eastwest;top=0;left=0;right=0;bottom=1;" parent="4EHw12qrjTxByGc45qhq-226" vertex="1">
                    <mxGeometry y="20" width="250" height="30" as="geometry"/>
                </mxCell>
                <mxCell id="4EHw12qrjTxByGc45qhq-228" value="PK" style="shape=partialRectangle;overflow=hidden;connectable=0;fillColor=none;top=0;left=0;bottom=0;right=0;fontStyle=1;" parent="4EHw12qrjTxByGc45qhq-227" vertex="1">
                    <mxGeometry width="30" height="30" as="geometry"/>
                </mxCell>
                <mxCell id="4EHw12qrjTxByGc45qhq-229" value="" style="shape=partialRectangle;overflow=hidden;connectable=0;fillColor=none;top=0;left=0;bottom=0;right=0;align=left;spacingLeft=6;fontStyle=5;" parent="4EHw12qrjTxByGc45qhq-227" vertex="1">
                    <mxGeometry x="30" width="220" height="30" as="geometry"/>
                </mxCell>
                <mxCell id="4EHw12qrjTxByGc45qhq-230" value="" style="shape=partialRectangle;collapsible=0;dropTarget=0;pointerEvents=0;fillColor=none;points=[[0,0.5],[1,0.5]];portConstraint=eastwest;top=0;left=0;right=0;bottom=0;" parent="4EHw12qrjTxByGc45qhq-226" vertex="1">
                    <mxGeometry y="50" width="250" height="30" as="geometry"/>
                </mxCell>
                <mxCell id="4EHw12qrjTxByGc45qhq-231" value="" style="shape=partialRectangle;overflow=hidden;connectable=0;fillColor=none;top=0;left=0;bottom=0;right=0;" parent="4EHw12qrjTxByGc45qhq-230" vertex="1">
                    <mxGeometry width="30" height="30" as="geometry"/>
                </mxCell>
                <mxCell id="4EHw12qrjTxByGc45qhq-232" value="" style="shape=partialRectangle;overflow=hidden;connectable=0;fillColor=none;top=0;left=0;bottom=0;right=0;align=left;spacingLeft=6;" parent="4EHw12qrjTxByGc45qhq-230" vertex="1">
                    <mxGeometry x="30" width="220" height="30" as="geometry"/>
                </mxCell>
                <mxCell id="4EHw12qrjTxByGc45qhq-235" value="AzureADPolicyNamedLocations" style="shape=table;startSize=20;container=1;collapsible=1;childLayout=tableLayout;fixedRows=1;rowLines=0;fontStyle=1;align=center;resizeLast=1;" parent="1" vertex="1">
                    <mxGeometry x="-190" y="-190" width="250" height="100" as="geometry"/>
                </mxCell>
                <mxCell id="4EHw12qrjTxByGc45qhq-236" value="" style="shape=partialRectangle;collapsible=0;dropTarget=0;pointerEvents=0;fillColor=none;points=[[0,0.5],[1,0.5]];portConstraint=eastwest;top=0;left=0;right=0;bottom=1;" parent="4EHw12qrjTxByGc45qhq-235" vertex="1">
                    <mxGeometry y="20" width="250" height="30" as="geometry"/>
                </mxCell>
                <mxCell id="4EHw12qrjTxByGc45qhq-237" value="PK" style="shape=partialRectangle;overflow=hidden;connectable=0;fillColor=none;top=0;left=0;bottom=0;right=0;fontStyle=1;" parent="4EHw12qrjTxByGc45qhq-236" vertex="1">
                    <mxGeometry width="30" height="30" as="geometry"/>
                </mxCell>
                <mxCell id="4EHw12qrjTxByGc45qhq-238" value="" style="shape=partialRectangle;overflow=hidden;connectable=0;fillColor=none;top=0;left=0;bottom=0;right=0;align=left;spacingLeft=6;fontStyle=5;" parent="4EHw12qrjTxByGc45qhq-236" vertex="1">
                    <mxGeometry x="30" width="220" height="30" as="geometry"/>
                </mxCell>
                <mxCell id="4EHw12qrjTxByGc45qhq-239" value="" style="shape=partialRectangle;collapsible=0;dropTarget=0;pointerEvents=0;fillColor=none;points=[[0,0.5],[1,0.5]];portConstraint=eastwest;top=0;left=0;right=0;bottom=0;" parent="4EHw12qrjTxByGc45qhq-235" vertex="1">
                    <mxGeometry y="50" width="250" height="30" as="geometry"/>
                </mxCell>
                <mxCell id="4EHw12qrjTxByGc45qhq-240" value="" style="shape=partialRectangle;overflow=hidden;connectable=0;fillColor=none;top=0;left=0;bottom=0;right=0;" parent="4EHw12qrjTxByGc45qhq-239" vertex="1">
                    <mxGeometry width="30" height="30" as="geometry"/>
                </mxCell>
                <mxCell id="4EHw12qrjTxByGc45qhq-241" value="" style="shape=partialRectangle;overflow=hidden;connectable=0;fillColor=none;top=0;left=0;bottom=0;right=0;align=left;spacingLeft=6;" parent="4EHw12qrjTxByGc45qhq-239" vertex="1">
                    <mxGeometry x="30" width="220" height="30" as="geometry"/>
                </mxCell>
                <mxCell id="4EHw12qrjTxByGc45qhq-242" style="edgeStyle=none;rounded=0;orthogonalLoop=1;jettySize=auto;html=1;entryX=0.324;entryY=-0.01;entryDx=0;entryDy=0;entryPerimeter=0;endArrow=classic;endFill=1;exitX=-0.004;exitY=0.033;exitDx=0;exitDy=0;exitPerimeter=0;" parent="1" source="4EHw12qrjTxByGc45qhq-230" target="4EHw12qrjTxByGc45qhq-235" edge="1">
                    <mxGeometry relative="1" as="geometry">
                        <Array as="points">
                            <mxPoint x="-109" y="-289"/>
                        </Array>
                    </mxGeometry>
                </mxCell>
                <mxCell id="H-VeI4tqfpoL3jdRFG1W-16" value="AzureADSignIn" style="shape=table;startSize=30;container=1;collapsible=1;childLayout=tableLayout;fixedRows=1;rowLines=0;fontStyle=1;align=center;resizeLast=1;" parent="1" vertex="1">
                    <mxGeometry x="-360" y="390" width="250" height="100" as="geometry"/>
                </mxCell>
                <mxCell id="H-VeI4tqfpoL3jdRFG1W-17" value="" style="shape=partialRectangle;collapsible=0;dropTarget=0;pointerEvents=0;fillColor=none;points=[[0,0.5],[1,0.5]];portConstraint=eastwest;top=0;left=0;right=0;bottom=1;" parent="H-VeI4tqfpoL3jdRFG1W-16" vertex="1">
                    <mxGeometry y="30" width="250" height="30" as="geometry"/>
                </mxCell>
                <mxCell id="H-VeI4tqfpoL3jdRFG1W-18" value="PK" style="shape=partialRectangle;overflow=hidden;connectable=0;fillColor=none;top=0;left=0;bottom=0;right=0;fontStyle=1;" parent="H-VeI4tqfpoL3jdRFG1W-17" vertex="1">
                    <mxGeometry width="30" height="30" as="geometry"/>
                </mxCell>
                <mxCell id="H-VeI4tqfpoL3jdRFG1W-19" value="" style="shape=partialRectangle;overflow=hidden;connectable=0;fillColor=none;top=0;left=0;bottom=0;right=0;align=left;spacingLeft=6;fontStyle=5;" parent="H-VeI4tqfpoL3jdRFG1W-17" vertex="1">
                    <mxGeometry x="30" width="220" height="30" as="geometry"/>
                </mxCell>
                <mxCell id="H-VeI4tqfpoL3jdRFG1W-20" value="" style="shape=partialRectangle;collapsible=0;dropTarget=0;pointerEvents=0;fillColor=none;points=[[0,0.5],[1,0.5]];portConstraint=eastwest;top=0;left=0;right=0;bottom=0;" parent="H-VeI4tqfpoL3jdRFG1W-16" vertex="1">
                    <mxGeometry y="60" width="250" height="30" as="geometry"/>
                </mxCell>
                <mxCell id="H-VeI4tqfpoL3jdRFG1W-21" value="" style="shape=partialRectangle;overflow=hidden;connectable=0;fillColor=none;top=0;left=0;bottom=0;right=0;" parent="H-VeI4tqfpoL3jdRFG1W-20" vertex="1">
                    <mxGeometry width="30" height="30" as="geometry"/>
                </mxCell>
                <mxCell id="H-VeI4tqfpoL3jdRFG1W-22" value="" style="shape=partialRectangle;overflow=hidden;connectable=0;fillColor=none;top=0;left=0;bottom=0;right=0;align=left;spacingLeft=6;" parent="H-VeI4tqfpoL3jdRFG1W-20" vertex="1">
                    <mxGeometry x="30" width="220" height="30" as="geometry"/>
                </mxCell>
                <mxCell id="H-VeI4tqfpoL3jdRFG1W-23" style="edgeStyle=orthogonalEdgeStyle;rounded=0;orthogonalLoop=1;jettySize=auto;html=1;entryX=-0.008;entryY=0.2;entryDx=0;entryDy=0;entryPerimeter=0;endArrow=classic;endFill=1;" parent="1" source="H-VeI4tqfpoL3jdRFG1W-17" target="C-vyLk0tnHw3VtMMgP7b-20" edge="1">
                    <mxGeometry relative="1" as="geometry">
                        <Array as="points">
                            <mxPoint x="-110" y="466"/>
                        </Array>
                    </mxGeometry>
                </mxCell>
            </root>
        </mxGraphModel>
    </diagram>
</mxfile>